<svg width="21" height="16" viewBox="0 0 21 16" fill="none" xmlns="http://www.w3.org/2000/svg">
<path d="M17.6081 1.42491C16.2824 0.820864 14.8607 0.375831 13.3743 0.120942C13.3472 0.116023 13.3202 0.128317 13.3063 0.152904C13.1234 0.475816 12.9209 0.897082 12.7791 1.22819C11.1804 0.990522 9.58982 0.990522 8.02388 1.22819C7.88203 0.889722 7.67215 0.475816 7.4885 0.152904C7.47455 0.129137 7.44751 0.116843 7.42044 0.120942C5.93485 0.375016 4.51322 0.820049 3.18668 1.42491C3.17519 1.42982 3.16535 1.43803 3.15882 1.44867C0.462273 5.44908 -0.276424 9.35116 0.0859561 13.2049C0.0875958 13.2237 0.0982539 13.2418 0.113012 13.2532C1.89211 14.5506 3.61548 15.3382 5.30684 15.8603C5.33391 15.8685 5.36259 15.8587 5.37982 15.8365C5.77991 15.294 6.13656 14.7219 6.44235 14.1203C6.46039 14.0851 6.44317 14.0433 6.40628 14.0294C5.84058 13.8163 5.30192 13.5565 4.78377 13.2614C4.74278 13.2376 4.7395 13.1794 4.7772 13.1516C4.88624 13.0704 4.99531 12.986 5.09943 12.9008C5.11826 12.8852 5.14451 12.8819 5.16666 12.8918C8.57071 14.4351 12.256 14.4351 15.6199 12.8918C15.642 12.8811 15.6683 12.8844 15.6879 12.9C15.7921 12.9852 15.9011 13.0704 16.011 13.1516C16.0487 13.1794 16.0462 13.2376 16.0052 13.2614C15.4871 13.5622 14.9484 13.8163 14.3819 14.0285C14.345 14.0425 14.3286 14.0851 14.3467 14.1203C14.659 14.7211 15.0157 15.2932 15.4084 15.8357C15.4248 15.8587 15.4543 15.8685 15.4814 15.8603C17.1809 15.3382 18.9043 14.5506 20.6834 13.2532C20.699 13.2418 20.7088 13.2245 20.7104 13.2057C21.1441 8.75038 19.984 4.8803 17.6351 1.44949C17.6294 1.43803 17.6196 1.42982 17.6081 1.42491ZM6.95069 10.8584C5.92583 10.8584 5.08138 9.92405 5.08138 8.77662C5.08138 7.62918 5.90946 6.69487 6.95069 6.69487C8.00009 6.69487 8.83637 7.63739 8.81996 8.77662C8.81996 9.92405 7.99189 10.8584 6.95069 10.8584ZM13.8621 10.8584C12.8373 10.8584 11.9928 9.92405 11.9928 8.77662C11.9928 7.62918 12.8209 6.69487 13.8621 6.69487C14.9115 6.69487 15.7478 7.63739 15.7314 8.77662C15.7314 9.92405 14.9115 10.8584 13.8621 10.8584Z" fill="#0A0A0A"/>
</svg>
