<svg width="16" height="16" viewBox="0 0 16 16" fill="none" xmlns="http://www.w3.org/2000/svg">
<path d="M15.1961 15.9999V15.9992H15.1999V10.0636C15.1999 7.1599 14.6115 4.9231 11.416 4.9231C9.87984 4.9231 8.84897 5.81863 8.42811 6.66763H8.38367V5.19418H5.35388V15.9992H8.50873V10.649C8.50873 9.24025 8.7601 7.87807 10.4023 7.87807C12.0203 7.87807 12.0444 9.48571 12.0444 10.7393V15.9999H15.1961Z" fill="#0A0A0A"/>
<path d="M0.430908 4.9231H2.89242V15.9999H0.430908V4.9231Z" fill="#0A0A0A"/>
<path d="M1.59999 0C0.71672 0 0 0.713379 0 1.59253C0 2.47168 0.71672 3.19998 1.59999 3.19998C2.48326 3.19998 3.19998 2.47168 3.19998 1.59253C3.19943 0.713379 2.48271 0 1.59999 0V0Z" fill="#0A0A0A"/>
</svg>
