<svg width="19" height="16" viewBox="0 0 19 16" fill="none" xmlns="http://www.w3.org/2000/svg">
<path d="M18.6569 7.05338C18.7339 7.87014 18.3481 8.47616 17.7126 8.94376C17.5599 9.05601 17.5127 9.15036 17.5398 9.34525C17.7389 10.8066 17.3101 12.0875 16.3421 13.1894C15.1216 14.5784 13.5361 15.3366 11.7556 15.7353C10.5184 16.0122 9.26597 16.0714 8.00658 15.9151C6.56678 15.7353 5.1936 15.3428 3.95572 14.5674C2.87118 13.8883 1.97816 13.0275 1.45914 11.8368C1.09416 10.9994 1.00049 10.1289 1.15106 9.23162C1.16702 9.13521 1.14759 9.08218 1.05877 9.02364C0.520323 8.66554 0.12967 8.19381 0.0290574 7.54164C-0.226984 5.88266 1.2593 4.87309 2.51106 5.20227C2.87327 5.2973 3.20841 5.49357 3.55188 5.65127C3.63584 5.68984 3.69204 5.71463 3.78363 5.65265C4.78768 4.97294 5.89164 4.52807 7.07887 4.27877C7.74083 4.13966 8.40834 4.04463 9.08556 4.04945C9.21948 4.05014 9.24585 3.97852 9.27707 3.87935C9.63789 2.73824 10.0015 1.5985 10.3637 0.458083C10.4921 0.0531504 10.687 -0.0604787 11.1041 0.0283585C12.1081 0.241155 13.1121 0.450507 14.1148 0.668813C14.239 0.695671 14.3098 0.672945 14.393 0.576532C15.2444 -0.406186 16.5656 0.0428202 16.9909 0.79346C17.5224 1.73279 16.9271 2.90558 15.8301 3.08119C15.0321 3.20859 14.2418 2.70656 14.0294 1.91873C13.9843 1.75208 13.9052 1.69698 13.7463 1.66462C12.972 1.50829 12.2011 1.33819 11.4295 1.1736C11.3684 1.16052 11.306 1.15363 11.2283 1.14123C10.9049 2.13979 10.585 3.12871 10.2561 4.14379C10.4504 4.16376 10.6197 4.18167 10.789 4.19889C12.301 4.35108 13.7033 4.8173 14.9759 5.64989C15.0564 5.70223 15.1043 5.69948 15.1827 5.63612C15.8689 5.07968 16.6343 4.98121 17.4343 5.33104C18.1733 5.65678 18.5813 6.25247 18.6569 7.05338ZM12.2129 10.255C12.8839 10.2543 13.4806 9.6641 13.4778 9.00436C13.475 8.30193 12.9012 7.72758 12.2059 7.72965C11.5308 7.73172 10.9424 8.30468 10.9431 8.95822C10.9438 9.67305 11.5148 10.2557 12.2129 10.255ZM12.5126 12.6474C12.6583 12.48 12.6209 12.281 12.487 12.1495C12.301 11.9663 12.0609 11.9153 11.8743 12.0214C11.7993 12.0641 11.7306 12.1171 11.6571 12.1619C10.3713 12.9373 9.02797 13.0578 7.63605 12.4835C7.35087 12.3657 7.08858 12.1908 6.82005 12.0358C6.62021 11.9201 6.36903 11.9608 6.17752 12.1529C6.05123 12.2789 6.03527 12.4959 6.16156 12.6735C6.23303 12.7734 6.32948 12.8636 6.43078 12.9339C7.30091 13.5399 8.27928 13.7926 9.41099 13.8057C9.53381 13.7967 9.73503 13.7857 9.93626 13.7671C10.6399 13.7031 11.3108 13.5192 11.918 13.157C12.1393 13.0234 12.3419 12.8416 12.5126 12.6474ZM6.50017 10.255C7.13091 10.2536 7.73527 9.6393 7.7325 9.00161C7.72972 8.31019 7.14478 7.72965 6.45229 7.73034C5.76882 7.73034 5.18666 8.31294 5.18805 8.99541C5.19013 9.68544 5.78478 10.2563 6.50017 10.255Z" fill="#0A0A0A"/>
</svg>
