<svg width="20" height="16" viewBox="0 0 20 16" fill="none" xmlns="http://www.w3.org/2000/svg">
<path d="M19.6923 1.89415C18.96 2.21538 18.1797 2.42831 17.3662 2.53169C18.2031 2.032 18.8419 1.24677 19.1422 0.300308C18.3619 0.765538 17.5003 1.09415 16.5822 1.27754C15.8412 0.488616 14.7852 0 13.6332 0C11.3982 0 9.59877 1.81415 9.59877 4.03815C9.59877 4.35815 9.62585 4.66585 9.69231 4.95877C6.336 4.79508 3.36615 3.18646 1.37108 0.736C1.02277 1.34031 0.818462 2.032 0.818462 2.77662C0.818462 4.17477 1.53846 5.41415 2.61169 6.13169C1.96308 6.11938 1.32677 5.93108 0.787692 5.63446C0.787692 5.64677 0.787692 5.66277 0.787692 5.67877C0.787692 7.64062 2.18708 9.27015 4.02215 9.64554C3.69354 9.73538 3.33539 9.77846 2.96369 9.77846C2.70523 9.77846 2.44431 9.76369 2.19939 9.70954C2.72246 11.3083 4.20677 12.4837 5.97169 12.5218C4.59816 13.5963 2.85415 14.2437 0.966154 14.2437C0.635077 14.2437 0.317539 14.2289 0 14.1883C1.78831 15.3415 3.90769 16 6.19323 16C13.6222 16 17.6837 9.84615 17.6837 4.512C17.6837 4.33354 17.6775 4.16123 17.6689 3.99015C18.4702 3.42154 19.1434 2.71138 19.6923 1.89415Z" fill="#0A0A0A"/>
</svg>
