<svg width="35" height="38" viewBox="0 0 35 38" fill="none" xmlns="http://www.w3.org/2000/svg">
<path fill-rule="evenodd" clip-rule="evenodd" d="M19.027 25.8603L10.1201 32.7415L16.5405 37.6882C17.0801 38.1039 17.8543 38.1039 18.394 37.6882L34.1308 25.5863L26.7453 19.9121L19.027 25.8603ZM16.3348 26.1897L13.4731 23.9843L13.469 23.9923L4.02653e-05 13.7695C2.8821e-05 13.7719 2.50061e-05 13.7743 2.50059e-05 13.7767L2.48903e-05 15.0982L2.10754e-05 15.1005L2.42083e-05 22.8995L2.02779e-05 24.2234C2.02375e-05 24.6853 0.211175 25.101 0.5631 25.3782L8.95591 31.8445L16.3348 26.1897ZM0.704443 12.513L8.07513 18.1758L16.5405 11.6518C16.6151 11.5944 16.6941 11.5449 16.7765 11.5033L24.8757 5.29637L18.394 0.311823C17.8544 -0.103902 17.0801 -0.103902 16.5405 0.311823L0.704443 12.513ZM26.0546 6.20298L18.6685 11.8634L27.9288 19L27.9226 19.0048L34.9273 24.3865C34.932 24.34 34.9344 24.2932 34.9344 24.2465L34.9344 22.902L34.9344 22.8995L34.9345 13.7536C34.9345 13.3147 34.7233 12.8759 34.3714 12.5988L26.0546 6.20298Z" fill="white"/>
</svg>
