<svg width="132" height="28" viewBox="0 0 132 28" fill="none" xmlns="http://www.w3.org/2000/svg">
<g clip-path="url(#clip0_248_19364)">
<path d="M61.4222 14.8335C61.4387 13.5452 61.1089 12.2759 60.4669 11.1566C59.839 10.0644 58.918 9.16716 57.8069 8.5651C56.6448 7.93284 55.3381 7.6097 54.0134 7.627C51.8913 7.627 50.1233 8.31448 48.7094 9.68944C47.2955 11.0644 46.5893 12.7783 46.5908 14.8312C46.5908 16.888 47.297 18.6019 48.7094 19.9731C50.1218 21.3442 51.8898 22.0317 54.0134 22.0355C55.402 22.0355 56.6366 21.7373 57.7195 21.1511C57.8132 21.0981 57.9218 21.0768 58.0287 21.0904C58.1357 21.104 58.2354 21.1518 58.3127 21.2265L60.2795 23.1758C60.3718 23.2674 60.4968 23.3189 60.6272 23.3189C60.7577 23.3189 60.8827 23.2674 60.975 23.1758L62.4188 21.7441C62.5101 21.6531 62.5613 21.5298 62.5613 21.4013C62.5613 21.2728 62.5101 21.1496 62.4188 21.0585L60.5117 19.1686C60.4352 19.0937 60.3858 18.9955 60.3715 18.8896C60.3571 18.7837 60.3785 18.6761 60.4324 18.5836C61.0915 17.4943 61.4214 16.2443 61.4222 14.8335ZM54.0134 19.2155C52.7788 19.2155 51.7411 18.7965 50.9004 17.9586C50.0597 17.1207 49.6382 16.0779 49.6359 14.8301C49.6359 13.5801 50.0574 12.5372 50.9004 11.7016C51.7434 10.866 52.7849 10.447 54.0249 10.4447C55.2648 10.4447 56.2994 10.8637 57.1286 11.7016C57.9578 12.5395 58.3755 13.5835 58.3816 14.8335C58.3902 15.6204 58.1921 16.3959 57.8069 17.0834C57.4434 17.7404 56.9028 18.2837 56.2458 18.6522C55.5644 19.0318 54.7944 19.2261 54.0134 19.2155Z" fill="#28292E"/>
<path d="M72.9807 16.4126C72.9807 17.2559 72.7255 17.9338 72.2151 18.4465C71.7047 18.9592 71.0441 19.2155 70.2333 19.2155C69.4286 19.2155 68.7688 18.9584 68.263 18.4465C67.7572 17.9346 67.5066 17.2559 67.5066 16.4126V8.41427C67.5066 8.3501 67.4939 8.28656 67.4691 8.22729C67.4444 8.16802 67.4081 8.11418 67.3624 8.06886C67.3167 8.02354 67.2625 7.98763 67.2028 7.96318C67.1431 7.93872 67.0792 7.92622 67.0146 7.92637H64.9673C64.9026 7.92607 64.8385 7.93846 64.7787 7.96285C64.7189 7.98723 64.6645 8.02312 64.6187 8.06846C64.5729 8.11379 64.5365 8.16768 64.5117 8.22702C64.4869 8.28637 64.4741 8.35 64.4741 8.41427V16.5543C64.4741 18.1608 65.0182 19.4768 66.1065 20.5021C67.1947 21.5274 68.568 22.0408 70.2264 22.0423C71.8841 22.0423 73.2574 21.5289 74.3464 20.5021C75.4354 19.4752 75.9795 18.1593 75.9787 16.5543V8.41427C75.9787 8.3501 75.966 8.28656 75.9413 8.22729C75.9165 8.16802 75.8803 8.11418 75.8346 8.06886C75.7889 8.02354 75.7346 7.98763 75.6749 7.96318C75.6152 7.93872 75.5513 7.92622 75.4867 7.92637H73.4658C73.3366 7.92787 73.2133 7.97994 73.1225 8.07127C73.0316 8.16261 72.9807 8.28585 72.9807 8.41427V16.4126Z" fill="#28292E"/>
<path d="M80.3445 21.743H82.3861C82.4508 21.7431 82.5148 21.7306 82.5746 21.7061C82.6344 21.6815 82.6887 21.6455 82.7344 21.6001C82.7801 21.5546 82.8163 21.5007 82.841 21.4413C82.8657 21.3819 82.8783 21.3182 82.8781 21.2539V8.41426C82.8781 8.35009 82.8654 8.28655 82.8407 8.22728C82.8159 8.16802 82.7797 8.11418 82.734 8.06886C82.6883 8.02354 82.634 7.98762 82.5743 7.96317C82.5146 7.93872 82.4507 7.92621 82.3861 7.92636H80.3445C80.28 7.92621 80.216 7.93872 80.1563 7.96317C80.0967 7.98762 80.0424 8.02354 79.9967 8.06886C79.951 8.11418 79.9147 8.16802 79.89 8.22728C79.8653 8.28655 79.8525 8.35009 79.8525 8.41426V21.2562C79.8527 21.3203 79.8655 21.3837 79.8903 21.4428C79.9151 21.502 79.9514 21.5557 79.9971 21.6009C80.0428 21.6461 80.097 21.6819 80.1566 21.7063C80.2162 21.7307 80.2801 21.7431 80.3445 21.743Z" fill="#28292E"/>
<path d="M93.491 16.8274H97.1787C97.0009 17.2954 96.7187 17.7173 96.3534 18.0615C95.9611 18.4309 95.4967 18.7164 94.9889 18.9001C94.4476 19.1001 93.8742 19.2003 93.2967 19.1961C92.5316 19.2128 91.7765 19.0216 91.1126 18.6431C90.4856 18.2786 89.9775 17.7423 89.6493 17.0982C89.2953 16.4013 89.1177 15.629 89.132 14.8484C89.132 13.558 89.5152 12.5049 90.2815 11.689C91.0479 10.8732 92.0529 10.4672 93.2967 10.471C93.8578 10.4671 94.4146 10.5678 94.9383 10.7681C95.4319 10.9562 95.882 11.2419 96.2614 11.6079C96.5661 11.9054 96.8162 12.2534 97.0005 12.6363C97.0411 12.7165 97.1033 12.7838 97.1803 12.8306C97.2573 12.8775 97.346 12.902 97.4362 12.9014H99.5893C99.666 12.9018 99.7418 12.8844 99.8106 12.8505C99.8793 12.8167 99.9392 12.7673 99.9853 12.7063C100.031 12.6454 100.063 12.5745 100.076 12.4995C100.09 12.4244 100.086 12.3472 100.064 12.2741C99.6705 11.0014 98.8753 9.88847 97.796 9.09986C96.4932 8.11949 94.9743 7.6293 93.2393 7.6293C91.1816 7.6293 89.4765 8.31488 88.1238 9.68603C86.7712 11.0572 86.0945 12.7818 86.0938 14.8598C86.0938 16.9257 86.78 18.6396 88.1526 20.0016C89.5251 21.3636 91.2398 22.0446 93.2967 22.0446C95.3797 22.0446 97.0848 21.3374 98.4122 19.9228C99.6292 18.6225 100.293 16.9973 100.404 15.0472C100.409 14.9802 100.4 14.9131 100.377 14.8498C100.354 14.7866 100.319 14.7286 100.273 14.6794C100.227 14.6303 100.171 14.591 100.11 14.5641C100.048 14.5371 99.981 14.5231 99.9135 14.5228H93.4887C93.3584 14.5228 93.2335 14.5741 93.1412 14.6656C93.049 14.7571 92.997 14.8812 92.9967 15.0107V16.3452C92.9991 16.474 93.0523 16.5966 93.1447 16.6868C93.2371 16.7769 93.3615 16.8274 93.491 16.8274Z" fill="#28292E"/>
<path d="M113.976 8.56511C112.814 7.93271 111.507 7.60956 110.182 7.62701C108.06 7.62701 106.292 8.31449 104.878 9.68945C103.464 11.0644 102.758 12.7783 102.76 14.8313C102.76 16.888 103.466 18.6019 104.878 19.9731C106.291 21.3442 108.059 22.0317 110.182 22.0355C112.305 22.0355 114.07 21.3499 115.477 19.9788C116.884 18.6076 117.588 16.8899 117.588 14.8255C117.605 13.5357 117.275 12.2646 116.632 11.144C116.003 10.0576 115.083 9.16513 113.976 8.56511ZM113.976 17.0834C113.611 17.7411 113.069 18.2844 112.41 18.6522C111.729 19.0309 110.96 19.2244 110.18 19.2132C108.945 19.2132 107.907 18.7943 107.066 17.9563C106.224 17.1184 105.803 16.0756 105.801 14.8278C105.801 13.5778 106.223 12.535 107.066 11.6993C107.909 10.8637 108.951 10.4447 110.192 10.4424C111.431 10.4424 112.466 10.8614 113.295 11.6993C114.124 12.5373 114.539 13.5801 114.539 14.8278C114.552 15.6156 114.358 16.3931 113.976 17.0834Z" fill="#28292E"/>
<path d="M128.992 8.41428V16.3555L123.029 8.12862C122.984 8.06574 122.924 8.0145 122.855 7.97914C122.785 7.94378 122.708 7.9253 122.63 7.92523H120.647C120.583 7.92508 120.519 7.93758 120.459 7.96202C120.399 7.98646 120.345 8.02236 120.299 8.06766C120.253 8.11297 120.217 8.1668 120.192 8.22607C120.167 8.28535 120.154 8.34891 120.154 8.41313V21.2562C120.154 21.3205 120.167 21.3841 120.192 21.4435C120.217 21.5028 120.253 21.5567 120.299 21.602C120.345 21.6474 120.399 21.6833 120.459 21.7076C120.519 21.732 120.583 21.7444 120.647 21.7441H122.63C122.695 21.7443 122.759 21.7318 122.818 21.7073C122.878 21.6828 122.932 21.6469 122.978 21.6016C123.023 21.5562 123.06 21.5024 123.084 21.4431C123.109 21.3838 123.121 21.3203 123.121 21.2562V13.1173L129.283 21.543C129.328 21.6054 129.388 21.6561 129.457 21.6911C129.526 21.7261 129.603 21.7442 129.681 21.7441H131.445C131.51 21.7444 131.574 21.732 131.633 21.7076C131.693 21.6832 131.747 21.6473 131.793 21.602C131.839 21.5566 131.875 21.5027 131.9 21.4434C131.925 21.384 131.937 21.3204 131.937 21.2562V8.41428C131.937 8.35011 131.924 8.28657 131.9 8.2273C131.875 8.16803 131.839 8.11419 131.793 8.06887C131.747 8.02355 131.693 7.98764 131.633 7.96319C131.574 7.93873 131.51 7.92623 131.445 7.92638H129.483C129.353 7.92638 129.228 7.97778 129.136 8.06928C129.044 8.16078 128.992 8.28488 128.992 8.41428Z" fill="#28292E"/>
<path d="M23.2782 0H14.8865C6.67767 0 0 6.28443 0 14.0006C0 21.7167 6.67767 28 14.8865 28H28.3361V18.7585H14.8865C12.0966 18.7585 9.82856 16.624 9.82856 14.0006C9.82856 11.3771 12.0977 9.24154 14.8865 9.24154H23.2782C26.0692 9.24154 28.3361 11.376 28.3361 14.0006V18.7585H38.1624V14.0006C38.1647 6.27986 31.4882 0 23.2782 0Z" fill="#0FD413"/>
</g>
<defs>
<clipPath id="clip0_248_19364">
<rect width="131.936" height="28" fill="white"/>
</clipPath>
</defs>
</svg>
