<svg width="1193" height="166" viewBox="0 0 1193 166" fill="none" xmlns="http://www.w3.org/2000/svg">
<g clip-path="url(#clip0_47_202)">
<path d="M246.54 42.1975C248.219 42.1975 248.652 42.6305 249.14 43.2799L270.971 72.397H271.73L292.803 43.4423C293.399 42.6846 294.32 42.2516 295.512 42.2516H308.73C310.084 42.2516 310.571 43.4423 309.921 44.2L280.343 81.3269L313.28 122.675C314.039 123.758 313.605 124.786 312.197 124.786H298.87C297.678 124.786 296.595 124.353 295.837 123.271L271.242 90.2569H270.484L247.027 123.162C246.106 124.245 245.077 124.84 243.831 124.84H230.613C229.53 124.84 228.934 123.92 229.692 122.892L262.141 81.6516L232.888 44.5247C232.292 43.4423 232.563 42.2516 233.972 42.2516H246.54V42.1975Z" fill="#151516"/>
<path d="M377.312 42.1975C395.351 42.1975 408.407 55.2406 408.407 71.7475C408.407 88.7415 395.351 101.46 377.312 101.46H351.093V122.675C351.093 124.028 350.497 124.786 349.251 124.786H339.391C338.037 124.786 337.279 124.028 337.279 122.675V44.3623C337.279 43.0093 338.037 42.2516 339.391 42.2516H377.312V42.1975ZM377.312 88.5791C388.363 88.5791 394.593 81.4352 394.593 71.7475C394.593 62.2222 388.363 55.0783 377.312 55.0783H351.093V88.5791H377.312V88.5791Z" fill="#151516"/>
<path d="M437.389 105.844C442.861 105.844 447.574 110.39 447.574 115.856C447.574 121.322 442.861 126.031 437.389 126.031C431.918 126.031 427.367 121.322 427.367 115.856C427.367 110.39 431.918 105.844 437.389 105.844Z" fill="#151516"/>
<path d="M539.017 124.786C537.933 124.786 537.066 124.353 536.416 123.433L509.276 89.1744L489.124 61.4645L488.365 61.6269L489.286 86.1978V122.729C489.286 124.082 488.528 124.84 487.011 124.84H477.477C476.285 124.84 475.635 124.082 475.635 122.729V44.3623C475.635 43.0093 476.231 42.2516 477.585 42.2516H486.524C488.04 42.2516 489.232 42.6846 489.991 43.767L519.135 80.1362L537.337 105.302L538.096 105.14L537.012 80.7316V44.3623C537.012 43.0093 537.771 42.2516 539.125 42.2516H548.659C550.014 42.2516 550.609 43.0093 550.609 44.3623V122.729C550.609 124.082 550.014 124.84 548.659 124.84H539.017V124.786Z" fill="#151516"/>
<path d="M642.757 42.1975C643.84 42.1975 644.87 43.1176 644.87 44.3082V52.9676C644.87 54.05 643.786 54.9159 642.757 54.9159H594.814V75.3736H638.477C639.832 75.3736 640.59 76.1313 640.59 77.4843V86.1437C640.59 87.4967 639.832 88.092 638.477 88.092H594.814V111.905H644.274C645.628 111.905 646.224 112.501 646.224 113.745V122.675C646.224 124.028 645.628 124.786 644.274 124.786H583.005C581.65 124.786 581.054 124.028 581.054 122.675V44.3623C581.054 43.0093 581.65 42.2516 583.005 42.2516H642.757V42.1975Z" fill="#151516"/>
<path d="M741.026 42.1975C742.38 42.1975 743.138 42.9552 743.138 44.3082V52.9676C743.138 54.3206 742.38 55.0783 741.026 55.0783H712.964V122.675C712.964 123.758 712.206 124.786 710.852 124.786H701.317C699.963 124.786 699.205 124.028 699.205 122.675V55.0783H671.143C669.789 55.0783 669.031 54.3206 669.031 52.9676V44.3082C669.031 42.9552 669.789 42.1975 671.143 42.1975H741.026Z" fill="#151516"/>
<path d="M776.4 42.1975C777.754 42.1975 778.513 42.6305 778.838 43.7129L797.961 108.712H798.719L817.084 43.7129C817.409 42.6305 818.167 42.1975 819.196 42.1975H829.381C830.464 42.1975 831.223 42.6305 831.494 43.7129L850.291 108.712H851.05L870.01 43.8753C870.335 42.7928 871.094 42.1975 872.123 42.1975H883.337C884.691 42.1975 885.178 42.7928 884.691 44.1459L858.905 122.946C858.471 124.137 857.551 124.786 856.305 124.786H843.737C842.545 124.786 841.786 124.191 841.299 122.838L824.614 64.82H823.855L807.333 123C807.008 124.191 806.249 124.84 805.22 124.84H792.489C791.135 124.84 790.214 124.245 789.781 123L763.832 43.8753C763.399 42.7928 763.832 42.1975 765.186 42.1975H776.4V42.1975Z" fill="#151516"/>
<path d="M947.964 41.0068C971.909 41.0068 990.598 58.8667 990.598 83.6C990.598 108.171 971.963 126.031 947.964 126.031C924.02 126.031 905.331 108.171 905.331 83.6C905.331 58.8667 923.966 41.0068 947.964 41.0068ZM919.253 83.6C919.253 100.594 930.954 113.15 947.91 113.15C964.92 113.15 976.567 100.594 976.567 83.6C976.567 66.4978 964.866 53.8876 947.91 53.8876C930.954 53.8876 919.253 66.4437 919.253 83.6Z" fill="#151516"/>
<path d="M1057.93 42.1975C1075.97 42.1975 1089.19 55.2406 1089.19 71.7475C1089.19 83.2753 1082.96 92.9629 1073.43 97.8338L1087.24 122.405C1088 123.758 1087.24 124.84 1085.56 124.84H1074.51C1073.16 124.84 1072.07 123.758 1071.48 122.729L1060.43 101.352C1059.99 101.514 1059.23 101.514 1058.31 101.514H1031.77V122.729C1031.77 124.082 1031.17 124.84 1029.82 124.84H1020.28C1018.61 124.84 1018.01 123.758 1018.01 122.729V44.3623C1018.01 43.0093 1018.77 42.2516 1020.12 42.2516H1057.93V42.1975ZM1057.93 88.5791C1068.99 88.5791 1075.38 81.4352 1075.38 71.7475C1075.38 62.2222 1068.99 55.0783 1057.93 55.0783H1031.71V88.5791H1057.93V88.5791Z" fill="#151516"/>
<path d="M1129.66 42.1975C1131.01 42.1975 1131.77 42.9552 1131.77 44.3082V80.6775L1170.88 43.8753C1171.97 42.7928 1173.48 42.1975 1175.27 42.1975H1188.92C1190.28 42.1975 1190.87 43.5505 1189.84 44.6329L1153.44 77.8091L1191.79 122.188C1192.88 123.271 1192.23 124.786 1190.6 124.786H1178.47C1176.63 124.786 1175.11 124.191 1173.92 122.838L1143.42 86.7931L1131.72 96.2102V122.729C1131.72 124.082 1130.96 124.84 1129.6 124.84H1120.07C1118.72 124.84 1117.96 124.082 1117.96 122.729V44.3623C1117.96 43.0093 1118.72 42.2516 1120.07 42.2516H1129.66V42.1975Z" fill="#151516"/>
<path d="M110.404 162.346L92.4733 144.432C87.3811 139.344 79.1469 139.344 74.1089 144.432L56.1778 162.346C50.9231 167.596 42.3638 167.596 37.1091 162.346L28.4415 153.686L55.9069 126.247C71.0211 111.147 95.507 111.147 110.621 126.247L138.087 153.686L129.419 162.346C124.218 167.596 115.713 167.596 110.404 162.346Z" fill="#E22440"/>
<path d="M13.0565 138.262L4.38892 129.603C-0.865806 124.353 -0.865806 115.802 4.38892 110.552L22.32 92.6382C27.4122 87.5508 27.4122 79.3244 22.32 74.2912L4.38892 56.3771C-0.865806 51.1274 -0.865806 42.5763 4.38892 37.3266L13.0565 28.6672L40.5219 56.1065C55.636 71.2063 55.636 95.6689 40.5219 110.769L13.0565 138.262Z" fill="#E22440"/>
<path d="M83.5349 51.831C73.6213 51.831 63.7078 48.0966 56.1778 40.5197L28.7124 13.0804L37.38 4.42106C42.6347 -0.828668 51.194 -0.828668 56.4487 4.42106L74.3798 22.3351C79.4178 27.3683 87.7062 27.3683 92.7442 22.3351L110.675 4.42106C115.93 -0.828668 124.489 -0.828668 129.744 4.42106L138.412 13.0804L110.946 40.5197C103.362 47.9884 93.4484 51.831 83.5349 51.831Z" fill="#E22440"/>
<path d="M153.796 138.046L126.331 110.606C111.217 95.5066 111.217 71.0439 126.331 55.9442L153.796 28.5049L162.464 37.1642C167.719 42.414 167.719 50.9651 162.464 56.2148L144.533 74.1288C139.441 79.2162 139.441 87.4425 144.533 92.4758L162.464 110.39C167.719 115.64 167.719 124.191 162.464 129.44L153.796 138.046Z" fill="#E22440"/>
</g>
<defs>
<clipPath id="clip0_47_202">
<rect width="1192.09" height="166" fill="white"/>
</clipPath>
</defs>
</svg>
