<svg width="27" height="20" viewBox="0 0 27 20" fill="none" xmlns="http://www.w3.org/2000/svg">
<path d="M22.7223 1.78095C21.0651 1.0259 19.2881 0.469606 17.43 0.150995C17.3962 0.144846 17.3624 0.160213 17.345 0.190947C17.1164 0.594587 16.8633 1.12117 16.686 1.53506C14.6876 1.23797 12.6994 1.23797 10.742 1.53506C10.5647 1.11197 10.3024 0.594587 10.0728 0.190947C10.0553 0.161238 10.0215 0.145871 9.98771 0.150995C8.13073 0.468587 6.35368 1.02488 4.6955 1.78095C4.68115 1.7871 4.66885 1.79735 4.66068 1.81066C1.29 6.81117 0.366629 11.6888 0.819603 16.5059C0.821653 16.5295 0.834976 16.552 0.853423 16.5663C3.0773 18.1881 5.23151 19.1726 7.34571 19.8252C7.37955 19.8355 7.4154 19.8232 7.43693 19.7955C7.93705 19.1173 8.38285 18.4022 8.76509 17.6502C8.78765 17.6062 8.76612 17.5539 8.72001 17.5365C8.01288 17.2702 7.33956 16.9454 6.69187 16.5766C6.64063 16.5469 6.63653 16.4741 6.68366 16.4393C6.81996 16.3379 6.9563 16.2323 7.08644 16.1258C7.10999 16.1063 7.1428 16.1022 7.17048 16.1145C11.4255 18.0436 16.0322 18.0436 20.237 16.1145C20.2647 16.1012 20.2975 16.1053 20.3221 16.1248C20.4523 16.2313 20.5886 16.3379 20.7259 16.4393C20.773 16.4741 20.7699 16.5469 20.7187 16.5766C20.071 16.9526 19.3977 17.2702 18.6895 17.5355C18.6434 17.5529 18.6229 17.6062 18.6455 17.6502C19.0359 18.4012 19.4817 19.1163 19.9726 19.7945C19.9931 19.8232 20.03 19.8355 20.0638 19.8252C22.1883 19.1726 24.3425 18.1881 26.5664 16.5663C26.5859 16.552 26.5982 16.5305 26.6002 16.5069C27.1423 10.9378 25.6922 6.10019 22.7561 1.81168C22.7489 1.79735 22.7366 1.7871 22.7223 1.78095ZM9.40052 13.5728C8.11945 13.5728 7.06388 12.4049 7.06388 10.9706C7.06388 9.5363 8.09898 8.36841 9.40052 8.36841C10.7123 8.36841 11.7576 9.54655 11.7371 10.9706C11.7371 12.4049 10.702 13.5728 9.40052 13.5728ZM18.0398 13.5728C16.7588 13.5728 15.7032 12.4049 15.7032 10.9706C15.7032 9.5363 16.7383 8.36841 18.0398 8.36841C19.3516 8.36841 20.3969 9.54655 20.3764 10.9706C20.3764 12.4049 19.3516 13.5728 18.0398 13.5728Z" fill="#356EFF"/>
</svg>
