<svg width="27" height="24" viewBox="0 0 27 24" fill="none" xmlns="http://www.w3.org/2000/svg">
<path d="M0.000135714 17C0.000135714 18.2433 0.329313 19.4541 0.955123 20.5258L0.049316 22.9487C-0.0573619 23.2343 0.0122242 23.5564 0.22713 23.7721C0.44374 23.9905 0.767235 24.0562 1.04744 23.9506L3.51312 23.0414C4.58088 23.6695 5.78714 23.9999 7.0259 23.9999C10.8716 23.9999 14 20.86 14 17C14 13.14 10.8716 10 7.0259 10C3.18017 10 0.000135714 13.14 0.000135714 17ZM10.1255 16.2222C10.5535 16.2222 10.9004 16.5703 10.9004 17C10.9004 17.4295 10.5535 17.7777 10.1255 17.7777C9.69755 17.7777 9.3506 17.4295 9.3506 17C9.3506 16.5704 9.69755 16.2222 10.1255 16.2222ZM7.0259 16.2222C7.45385 16.2222 7.8008 16.5703 7.8008 17C7.8008 17.4295 7.45385 17.7777 7.0259 17.7777C6.59795 17.7777 6.251 17.4295 6.251 17C6.251 16.5704 6.59795 16.2222 7.0259 16.2222ZM3.9263 16.2222C4.35425 16.2222 4.7012 16.5703 4.7012 17C4.7012 17.4295 4.35425 17.7777 3.9263 17.7777C3.49835 17.7777 3.1514 17.4295 3.1514 17C3.1514 16.5704 3.49835 16.2222 3.9263 16.2222Z" fill="#356EFF"/>
<path d="M17.9611 0C13.1552 0 9.2422 3.78289 9 8.5368C12.7536 9.61658 15.5108 13.0793 15.5108 17.1818C15.5108 17.3383 15.4952 17.4909 15.4874 17.6455C16.2713 17.8707 17.0982 18 17.9611 18C19.6678 18 21.2575 17.5146 22.6164 16.6868C22.6273 16.6802 22.6393 16.6763 22.6502 16.6696L25.88 17.9416C26.1879 18.0645 26.5328 17.9884 26.7605 17.7603C26.9919 17.5286 27.0629 17.1818 26.9416 16.8782L25.6718 13.6973C25.6801 13.684 25.6854 13.6693 25.6935 13.6558C26.5755 12.1994 26.9998 10.5421 26.9998 9C26.9999 4.02938 22.923 0 17.9611 0ZM14.694 9.81818C14.2429 9.81818 13.8773 9.45185 13.8773 9C13.8773 8.54804 14.2429 8.18182 14.694 8.18182C15.1451 8.18182 15.5108 8.54804 15.5108 9C15.5108 9.45185 15.145 9.81818 14.694 9.81818ZM17.9611 9.81818C17.51 9.81818 17.1443 9.45185 17.1443 9C17.1443 8.54804 17.51 8.18182 17.9611 8.18182C18.4121 8.18182 18.7778 8.54804 18.7778 9C18.7778 9.45185 18.4121 9.81818 17.9611 9.81818ZM21.2281 9.81818C20.777 9.81818 20.4113 9.45185 20.4113 9C20.4113 8.54804 20.777 8.18182 21.2281 8.18182C21.6792 8.18182 22.0448 8.54804 22.0448 9C22.0448 9.45185 21.6791 9.81818 21.2281 9.81818Z" fill="#356EFF"/>
</svg>
