<svg width="20" height="22" viewBox="0 0 20 22" fill="none" xmlns="http://www.w3.org/2000/svg">
<path d="M6.10283 22C6.8801 22 7.09976 21.6959 7.09976 21.3072C7.09976 20.9186 7.09976 20.0737 7.08286 18.874C3.04446 19.7358 2.18271 16.9478 2.18271 16.9478C1.52372 15.3088 0.560589 14.8525 0.560589 14.8525C-0.757383 13.9739 0.661972 13.9908 0.661972 13.9908C2.11512 14.0922 2.89239 15.4608 2.89239 15.4608C4.19346 17.6574 6.2887 17.0154 7.11666 16.6436C7.18424 15.9171 7.50529 15.2243 8.046 14.7174C4.81865 14.3625 1.42234 13.129 1.42234 7.65438C1.40544 6.23502 1.94615 4.84946 2.92618 3.81874C2.75721 3.4639 2.26719 2.01075 3.04446 0.0337914C3.04446 0.0337914 4.26105 -0.354841 7.04907 1.50384C9.43156 0.861749 11.9323 0.861749 14.3148 1.50384C17.069 -0.337944 18.3025 0.0337914 18.3025 0.0337914C19.0798 1.99385 18.5898 3.447 18.4546 3.81874C19.4346 4.84946 19.9584 6.23502 19.9415 7.65438C19.9415 13.1459 16.5452 14.3456 13.301 14.7005C13.8079 15.1229 14.281 16.0015 14.281 17.3364C14.281 19.2627 14.2641 20.7834 14.2641 21.2396C14.2641 21.6114 14.4331 21.9155 15.2611 21.9155L6.10283 22Z" fill="#356EFF"/>
</svg>
