<svg width="18" height="18" viewBox="0 0 18 18" fill="none" xmlns="http://www.w3.org/2000/svg">
<path d="M3.27241 14.7276C2.06326 13.5184 2.06326 11.5526 3.27241 10.3435L6.10084 7.51506L4.75733 6.17156L1.92891 8.99999C-0.0227092 10.9516 -0.0227092 14.1194 1.92891 16.0711C3.88052 18.0227 7.04836 18.0227 8.99997 16.0711L11.8284 13.2426L10.4849 11.8991L7.65647 14.7276C6.44732 15.9367 4.48156 15.9367 3.27241 14.7276ZM6.87865 12.5355L12.5355 6.87867L11.1213 5.46445L5.46444 11.1213L6.87865 12.5355ZM8.99997 1.92892L6.17155 4.75735L7.51505 6.10085L10.3435 3.27242C11.5526 2.06327 13.5184 2.06327 14.7275 3.27242C15.9367 4.48158 15.9367 6.44733 14.7275 7.65649L11.8991 10.4849L13.2426 11.8284L16.071 8.99999C18.0227 7.04837 18.0227 3.88054 16.071 1.92892C14.1194 -0.0226938 10.9516 -0.0226939 8.99997 1.92892Z" fill="black"/>
</svg>
