<svg width="227" height="27" viewBox="0 0 227 27" fill="none" xmlns="http://www.w3.org/2000/svg">
<path opacity="0.9" d="M180.472 18H177.717V9.07438H180.594C181.459 9.07438 182.2 9.25307 182.816 9.61044C183.432 9.96491 183.904 10.4748 184.233 11.1402C184.561 11.8026 184.725 12.5958 184.725 13.5198C184.725 14.4495 184.56 15.25 184.228 15.9211C183.897 16.5894 183.415 17.1037 182.781 17.4639C182.148 17.8213 181.378 18 180.472 18ZM178.798 17.0412H180.402C181.14 17.0412 181.751 16.8988 182.237 16.6141C182.722 16.3294 183.084 15.924 183.322 15.3981C183.56 14.8723 183.679 14.2461 183.679 13.5198C183.679 12.7992 183.562 12.1789 183.326 11.6588C183.091 11.1358 182.739 10.7349 182.272 10.4559C181.804 10.1741 181.221 10.0332 180.524 10.0332H178.798V17.0412ZM194.069 13.5372C194.069 14.4786 193.899 15.2921 193.559 15.9778C193.219 16.6635 192.753 17.1923 192.16 17.5642C191.568 17.9361 190.891 18.122 190.129 18.122C189.368 18.122 188.691 17.9361 188.098 17.5642C187.506 17.1923 187.039 16.6635 186.699 15.9778C186.36 15.2921 186.19 14.4786 186.19 13.5372C186.19 12.5958 186.36 11.7823 186.699 11.0966C187.039 10.4109 187.506 9.8821 188.098 9.5102C188.691 9.1383 189.368 8.95235 190.129 8.95235C190.891 8.95235 191.568 9.1383 192.16 9.5102C192.753 9.8821 193.219 10.4109 193.559 11.0966C193.899 11.7823 194.069 12.5958 194.069 13.5372ZM193.023 13.5372C193.023 12.7643 192.894 12.1121 192.635 11.5804C192.38 11.0487 192.032 10.6462 191.594 10.3731C191.158 10.1 190.67 9.96346 190.129 9.96346C189.589 9.96346 189.099 10.1 188.661 10.3731C188.225 10.6462 187.878 11.0487 187.619 11.5804C187.363 12.1121 187.236 12.7643 187.236 13.5372C187.236 14.31 187.363 14.9623 187.619 15.494C187.878 16.0257 188.225 16.4281 188.661 16.7013C189.099 16.9744 189.589 17.1109 190.129 17.1109C190.67 17.1109 191.158 16.9744 191.594 16.7013C192.032 16.4281 192.38 16.0257 192.635 15.494C192.894 14.9623 193.023 14.31 193.023 13.5372ZM203.069 11.8636H201.988C201.924 11.5528 201.812 11.2796 201.652 11.0443C201.496 10.8089 201.304 10.6114 201.077 10.4516C200.853 10.2889 200.605 10.1668 200.332 10.0855C200.059 10.0041 199.774 9.96346 199.478 9.96346C198.937 9.96346 198.448 10.1 198.009 10.3731C197.573 10.6462 197.226 11.0487 196.967 11.5804C196.712 12.1121 196.584 12.7643 196.584 13.5372C196.584 14.31 196.712 14.9623 196.967 15.494C197.226 16.0257 197.573 16.4281 198.009 16.7013C198.448 16.9744 198.937 17.1109 199.478 17.1109C199.774 17.1109 200.059 17.0702 200.332 16.9889C200.605 16.9075 200.853 16.787 201.077 16.6272C201.304 16.4645 201.496 16.2654 201.652 16.0301C201.812 15.7918 201.924 15.5187 201.988 15.2107H203.069C202.988 15.6669 202.839 16.0751 202.624 16.4354C202.409 16.7957 202.142 17.1022 201.822 17.355C201.503 17.6049 201.144 17.7952 200.746 17.9259C200.351 18.0567 199.928 18.122 199.478 18.122C198.717 18.122 198.04 17.9361 197.447 17.5642C196.854 17.1923 196.388 16.6635 196.048 15.9778C195.708 15.2921 195.538 14.4786 195.538 13.5372C195.538 12.5958 195.708 11.7823 196.048 11.0966C196.388 10.4109 196.854 9.8821 197.447 9.5102C198.04 9.1383 198.717 8.95235 199.478 8.95235C199.928 8.95235 200.351 9.01772 200.746 9.14847C201.144 9.27922 201.503 9.47098 201.822 9.72375C202.142 9.97362 202.409 10.2787 202.624 10.639C202.839 10.9964 202.988 11.4046 203.069 11.8636ZM209.697 11.3058C209.644 10.8642 209.432 10.5213 209.06 10.2772C208.688 10.0332 208.232 9.91116 207.692 9.91116C207.297 9.91116 206.951 9.97508 206.655 10.1029C206.361 10.2308 206.132 10.4065 205.966 10.6303C205.803 10.854 205.722 11.1082 205.722 11.3929C205.722 11.6312 205.779 11.836 205.892 12.0075C206.008 12.176 206.156 12.3169 206.336 12.4302C206.517 12.5406 206.705 12.6321 206.903 12.7048C207.101 12.7745 207.282 12.8312 207.448 12.8747L208.354 13.1188C208.587 13.1798 208.845 13.2641 209.13 13.3716C209.418 13.4791 209.692 13.6258 209.954 13.8118C210.218 13.9948 210.436 14.2301 210.608 14.5178C210.779 14.8054 210.865 15.1584 210.865 15.5768C210.865 16.0591 210.738 16.495 210.486 16.8843C210.236 17.2736 209.87 17.5831 209.387 17.8126C208.908 18.0421 208.325 18.1569 207.64 18.1569C207 18.1569 206.447 18.0538 205.979 17.8475C205.514 17.6412 205.148 17.3535 204.881 16.9845C204.616 16.6155 204.467 16.187 204.432 15.6989H205.548C205.577 16.0359 205.69 16.3148 205.888 16.5356C206.088 16.7536 206.341 16.9163 206.646 17.0238C206.954 17.1284 207.285 17.1807 207.64 17.1807C208.052 17.1807 208.423 17.1138 208.751 16.9802C209.079 16.8436 209.339 16.6548 209.531 16.4136C209.723 16.1696 209.819 15.8848 209.819 15.5594C209.819 15.263 209.736 15.0219 209.57 14.8359C209.405 14.65 209.187 14.4989 208.917 14.3827C208.646 14.2665 208.354 14.1648 208.041 14.0776L206.942 13.7638C206.245 13.5633 205.693 13.2772 205.286 12.9052C204.879 12.5333 204.676 12.0467 204.676 11.4452C204.676 10.9455 204.811 10.5097 205.081 10.1378C205.354 9.76298 205.721 9.47243 206.18 9.26614C206.642 9.05695 207.157 8.95235 207.727 8.95235C208.302 8.95235 208.813 9.05549 209.261 9.26178C209.708 9.46517 210.063 9.74409 210.324 10.0986C210.589 10.453 210.728 10.8554 210.743 11.3058H209.697Z" fill="#161515"/>
<path opacity="0.9" d="M168.888 6.37984V21.0583H168.016V6.37984H168.888Z" fill="#161515"/>
<path d="M33.053 7.60791C33.2785 7.60791 33.3367 7.66612 33.4022 7.75343L36.3345 11.6679H36.4363L39.2667 7.77526C39.3467 7.67339 39.4704 7.61518 39.6305 7.61518H41.4058C41.5877 7.61518 41.6532 7.77526 41.5659 7.87712L37.5932 12.8685L42.017 18.4273C42.1189 18.5728 42.0607 18.7111 41.8715 18.7111H40.0816C39.9215 18.7111 39.776 18.6529 39.6741 18.5074L36.3708 14.069H36.269L33.1185 18.4928C32.9948 18.6383 32.8565 18.7184 32.6892 18.7184H30.9138C30.7683 18.7184 30.6883 18.5947 30.7901 18.4564L35.1485 12.9121L31.2194 7.92078C31.1394 7.77526 31.1758 7.61518 31.3649 7.61518H33.053V7.60791Z" fill="#161515"/>
<path d="M50.6173 7.60791C53.0402 7.60791 54.7937 9.36143 54.7937 11.5806C54.7937 13.8653 53.0402 15.5751 50.6173 15.5751H47.0957V18.4273C47.0957 18.6092 47.0157 18.7111 46.8484 18.7111H45.5241C45.3422 18.7111 45.2404 18.6092 45.2404 18.4273V7.89895C45.2404 7.71705 45.3422 7.61518 45.5241 7.61518H50.6173V7.60791ZM50.6173 13.8434C52.1016 13.8434 52.9384 12.883 52.9384 11.5806C52.9384 10.3 52.1016 9.3396 50.6173 9.3396H47.0957V13.8434H50.6173V13.8434Z" fill="#161515"/>
<path d="M58.6864 16.1646C59.4213 16.1646 60.0543 16.7757 60.0543 17.5106C60.0543 18.2455 59.4213 18.8785 58.6864 18.8785C57.9515 18.8785 57.3403 18.2455 57.3403 17.5106C57.3403 16.7757 57.9515 16.1646 58.6864 16.1646Z" fill="#161515"/>
<path d="M72.3362 18.7111C72.1906 18.7111 72.0742 18.6529 71.9869 18.5292L68.3416 13.9235L65.635 10.1982L65.5331 10.22L65.6568 13.5233V18.4346C65.6568 18.6165 65.5549 18.7184 65.3512 18.7184H64.0706C63.9106 18.7184 63.8232 18.6165 63.8232 18.4346V7.899C63.8232 7.7171 63.9033 7.61523 64.0852 7.61523H65.2857C65.4894 7.61523 65.6495 7.67344 65.7514 7.81896L69.6659 12.7084L72.1106 16.0918L72.2125 16.0699L72.067 12.7885V7.899C72.067 7.7171 72.1688 7.61523 72.3507 7.61523H73.6313C73.8132 7.61523 73.8932 7.7171 73.8932 7.899V18.4346C73.8932 18.6165 73.8132 18.7184 73.6313 18.7184H72.3362V18.7111Z" fill="#161515"/>
<path d="M86.2697 7.60791C86.4152 7.60791 86.5534 7.7316 86.5534 7.89167V9.05583C86.5534 9.20135 86.4079 9.31777 86.2697 9.31777H79.8304V12.0681H85.6949C85.8768 12.0681 85.9786 12.17 85.9786 12.3519V13.516C85.9786 13.6979 85.8768 13.778 85.6949 13.778H79.8304V16.9794H86.4734C86.6553 16.9794 86.7353 17.0594 86.7353 17.2268V18.4273C86.7353 18.6092 86.6553 18.7111 86.4734 18.7111H78.2442C78.0623 18.7111 77.9823 18.6092 77.9823 18.4273V7.89895C77.9823 7.71705 78.0623 7.61518 78.2442 7.61518H86.2697V7.60791Z" fill="#161515"/>
<path d="M99.4684 7.60791C99.6503 7.60791 99.7522 7.70977 99.7522 7.89167V9.05583C99.7522 9.23773 99.6503 9.3396 99.4684 9.3396H95.6994V18.4273C95.6994 18.5728 95.5976 18.7111 95.4157 18.7111H94.1351C93.9532 18.7111 93.8513 18.6092 93.8513 18.4273V9.3396H90.0823C89.9004 9.3396 89.7986 9.23773 89.7986 9.05583V7.89167C89.7986 7.70977 89.9004 7.60791 90.0823 7.60791H99.4684Z" fill="#161515"/>
<path d="M104.22 7.60791C104.401 7.60791 104.503 7.66612 104.547 7.81164L107.115 16.5501H107.217L109.684 7.81164C109.727 7.66612 109.829 7.60791 109.968 7.60791H111.335C111.481 7.60791 111.583 7.66612 111.619 7.81164L114.144 16.5501H114.246L116.792 7.83347C116.836 7.68795 116.938 7.60791 117.076 7.60791H118.582C118.764 7.60791 118.83 7.68795 118.764 7.86985L115.301 18.4637C115.243 18.6238 115.119 18.7111 114.952 18.7111H113.264C113.104 18.7111 113.002 18.6311 112.936 18.4492L110.695 10.6493H110.593L108.374 18.471C108.33 18.6311 108.229 18.7184 108.09 18.7184H106.38C106.199 18.7184 106.075 18.6383 106.017 18.471L102.531 7.83347C102.473 7.68795 102.531 7.60791 102.713 7.60791H104.22V7.60791Z" fill="#161515"/>
<path d="M127.263 7.44788C130.479 7.44788 132.989 9.84896 132.989 13.1741C132.989 16.4774 130.486 18.8785 127.263 18.8785C124.047 18.8785 121.536 16.4774 121.536 13.1741C121.536 9.84896 124.039 7.44788 127.263 7.44788ZM123.406 13.1741C123.406 15.4588 124.978 17.1468 127.255 17.1468C129.54 17.1468 131.104 15.4588 131.104 13.1741C131.104 10.8749 129.533 9.17957 127.255 9.17957C124.978 9.17957 123.406 10.8676 123.406 13.1741Z" fill="#161515"/>
<path d="M142.033 7.60791C144.456 7.60791 146.231 9.36143 146.231 11.5806C146.231 13.1304 145.394 14.4328 144.114 15.0876L145.969 18.3909C146.071 18.5728 145.969 18.7184 145.744 18.7184H144.259C144.078 18.7184 143.932 18.5728 143.852 18.4346L142.368 15.5606C142.309 15.5824 142.208 15.5824 142.084 15.5824H138.519V18.4346C138.519 18.6165 138.439 18.7184 138.257 18.7184H136.976C136.751 18.7184 136.671 18.5728 136.671 18.4346V7.89895C136.671 7.71705 136.772 7.61518 136.954 7.61518H142.033V7.60791ZM142.033 13.8434C143.517 13.8434 144.376 12.883 144.376 11.5806C144.376 10.3 143.517 9.3396 142.033 9.3396H138.511V13.8434H142.033V13.8434Z" fill="#161515"/>
<path d="M151.666 7.60791C151.848 7.60791 151.95 7.70977 151.95 7.89167V12.7811L157.203 7.83347C157.349 7.68795 157.553 7.60791 157.793 7.60791H159.626C159.808 7.60791 159.888 7.78981 159.75 7.93533L154.861 12.3955L160.012 18.3618C160.158 18.5074 160.07 18.7111 159.852 18.7111H158.222C157.975 18.7111 157.771 18.6311 157.611 18.4492L153.515 13.6033L151.943 14.8694V18.4346C151.943 18.6165 151.841 18.7184 151.659 18.7184H150.379C150.197 18.7184 150.095 18.6165 150.095 18.4346V7.89895C150.095 7.71705 150.197 7.61518 150.379 7.61518H151.666V7.60791Z" fill="#161515"/>
<path d="M14.7684 23.7606L12.36 21.3523C11.6761 20.6683 10.5701 20.6683 9.89343 21.3523L7.48508 23.7606C6.77931 24.4664 5.6297 24.4664 4.92393 23.7606L3.75977 22.5964L7.4487 18.9075C9.4787 16.8775 12.7675 16.8775 14.7975 18.9075L18.4864 22.5964L17.3222 23.7606C16.6237 24.4664 15.4814 24.4664 14.7684 23.7606Z" fill="#F75471"/>
<path d="M1.69349 20.5227L0.529329 19.3586C-0.176443 18.6528 -0.176443 17.5032 0.529329 16.7974L2.93769 14.3891C3.62163 13.7051 3.62163 12.5992 2.93769 11.9225L0.529329 9.51413C-0.176443 8.80836 -0.176443 7.65875 0.529329 6.95298L1.69349 5.78882L5.38242 9.47775C7.41243 11.5078 7.41243 14.7965 5.38242 16.8265L1.69349 20.5227Z" fill="#F75471"/>
<path d="M11.1596 8.90311C9.82807 8.90311 8.49656 8.40106 7.4852 7.38242L3.79626 3.69349L4.96042 2.52933C5.6662 1.82356 6.8158 1.82356 7.52158 2.52933L9.92993 4.93768C10.6066 5.61435 11.7198 5.61435 12.3965 4.93768L14.8049 2.52933C15.5106 1.82356 16.6602 1.82356 17.366 2.52933L18.5302 3.69349L14.8412 7.38242C13.8226 8.38651 12.4911 8.90311 11.1596 8.90311Z" fill="#F75471"/>
<path d="M20.5964 20.4936L16.9075 16.8047C14.8775 14.7747 14.8775 11.4859 16.9075 9.4559L20.5964 5.76697L21.7606 6.93113C22.4664 7.6369 22.4664 8.78651 21.7606 9.49228L19.3522 11.9006C18.6683 12.5846 18.6683 13.6905 19.3522 14.3672L21.7606 16.7756C22.4664 17.4813 22.4664 18.6309 21.7606 19.3367L20.5964 20.4936Z" fill="#F75471"/>
</svg>
