<svg width="25" height="24" viewBox="0 0 25 24" fill="none" xmlns="http://www.w3.org/2000/svg">
<path d="M16.193 23.0737L13.6764 20.5571C12.9617 19.8424 11.8061 19.8424 11.099 20.5571L8.58241 23.0737C7.84492 23.8112 6.64366 23.8112 5.90617 23.0737L4.6897 21.8572L8.54439 18.0025C10.6656 15.8813 14.1022 15.8813 16.2234 18.0025L20.0781 21.8572L18.8616 23.0737C18.1317 23.8112 16.9381 23.8112 16.193 23.0737Z" fill="#F75471"/>
<path d="M2.53058 19.6904L1.3141 18.4739C0.576615 17.7364 0.576615 16.5352 1.3141 15.7977L3.83068 13.2811C4.54536 12.5664 4.54536 11.4108 3.83068 10.7037L1.3141 8.18712C0.576615 7.44963 0.576615 6.24836 1.3141 5.51088L2.53058 4.2944L6.38528 8.1491C8.5065 10.2703 8.5065 13.7069 6.38528 15.8281L2.53058 19.6904Z" fill="#F75471"/>
<path d="M12.422 7.54847C11.0306 7.54847 9.63929 7.02387 8.58248 5.95945L4.72778 2.10475L5.94426 0.888282C6.68174 0.150795 7.88301 0.150795 8.6205 0.888282L11.1371 3.40486C11.8442 4.11194 13.0074 4.11194 13.7145 3.40486L16.2311 0.888282C16.9685 0.150795 18.1698 0.150795 18.9073 0.888282L20.1238 2.10475L16.2691 5.95945C15.2047 7.00866 13.8133 7.54847 12.422 7.54847Z" fill="#F75471"/>
<path d="M22.283 19.66L18.4283 15.8053C16.3071 13.6841 16.3071 10.2475 18.4283 8.1263L22.283 4.2716L23.4995 5.48807C24.237 6.22556 24.237 7.42682 23.4995 8.16431L20.9829 10.6809C20.2682 11.3956 20.2682 12.5512 20.9829 13.2583L23.4995 15.7749C24.237 16.5124 24.237 17.7136 23.4995 18.4511L22.283 19.66Z" fill="#F75471"/>
</svg>
