<svg width="46" height="60" viewBox="0 0 46 60" fill="none" xmlns="http://www.w3.org/2000/svg">
<g style="mix-blend-mode:multiply">
<path d="M0 0H46V60H0V0Z" fill="#E22440"/>
<path d="M0.5 0.5H45.5V59.5H0.5V0.5Z" stroke="url(#paint0_linear_113_6637)" stroke-opacity="0.3"/>
</g>
<path d="M26.8716 50.4018L24.2818 47.8118C23.5463 47.0763 22.357 47.0763 21.6293 47.8118L19.0395 50.4018C18.2805 51.1608 17.0442 51.1608 16.2853 50.4018L15.0334 49.1499L19.0003 45.1827C21.1833 42.9996 24.7199 42.9996 26.9029 45.1827L30.8699 49.1499L29.618 50.4018C28.8668 51.1608 27.6384 51.1608 26.8716 50.4018Z" fill="white"/>
<path d="M12.8111 46.9197L11.5592 45.6678C10.8002 44.9088 10.8002 43.6725 11.5592 42.9135L14.1491 40.3235C14.8846 39.588 14.8846 38.3986 14.1491 37.6709L11.5592 35.081C10.8002 34.322 10.8002 33.0857 11.5592 32.3267L12.8111 31.0747L16.7781 35.0418C18.961 37.2249 18.961 40.7617 16.7781 42.9448L12.8111 46.9197Z" fill="white"/>
<path d="M22.9905 34.4237C21.5587 34.4237 20.1268 33.8838 19.0392 32.7883L15.0723 28.8212L16.3242 27.5692C17.0831 26.8103 18.3194 26.8103 19.0783 27.5692L21.6682 30.1592C22.3959 30.8869 23.593 30.8869 24.3206 30.1592L26.9105 27.5692C27.6695 26.8103 28.9057 26.8103 29.6647 27.5692L30.9166 28.8212L26.9496 32.7883C25.8542 33.8681 24.4224 34.4237 22.9905 34.4237Z" fill="white"/>
<path d="M33.1389 46.8885L29.1719 42.9214C26.9889 40.7383 26.9889 37.2015 29.1719 35.0184L33.1389 31.0513L34.3908 32.3032C35.1497 33.0622 35.1497 34.2985 34.3908 35.0575L31.8009 37.6475C31.0654 38.383 31.0654 39.5724 31.8009 40.3001L34.3908 42.8901C35.1497 43.6491 35.1497 44.8854 34.3908 45.6444L33.1389 46.8885Z" fill="white"/>
<defs>
<linearGradient id="paint0_linear_113_6637" x1="21.3571" y1="71.5" x2="19.9861" y2="52.9799" gradientUnits="userSpaceOnUse">
<stop/>
<stop offset="1" stop-opacity="0"/>
</linearGradient>
</defs>
</svg>
