<svg width="139" height="13" viewBox="0 0 139 13" fill="none" xmlns="http://www.w3.org/2000/svg">
<path d="M3.30868 0.60083C3.54919 0.60083 3.61126 0.663427 3.68108 0.757323L6.80772 4.96702H6.91634L9.93437 0.780798C10.0197 0.671252 10.1516 0.608653 10.3223 0.608653H12.2153C12.4093 0.608653 12.4791 0.780798 12.386 0.890343L8.14993 6.25809L12.867 12.2362C12.9757 12.3927 12.9136 12.5413 12.7119 12.5413H10.8033C10.6326 12.5413 10.4775 12.4787 10.3688 12.3222L6.84652 7.54917H6.7379L3.3785 12.3066C3.24661 12.4631 3.0992 12.5492 2.92076 12.5492H1.0277C0.872536 12.5492 0.787191 12.4161 0.895809 12.2675L5.5431 6.30504L1.35356 0.937291C1.26821 0.780797 1.30701 0.608653 1.50872 0.608653H3.30868V0.60083Z" fill="#151516"/>
<path d="M22.0375 0.60083C24.621 0.60083 26.4908 2.48658 26.4908 4.87312C26.4908 7.33008 24.621 9.16889 22.0375 9.16889H18.2824V12.2362C18.2824 12.4318 18.1971 12.5413 18.0186 12.5413H16.6066C16.4126 12.5413 16.304 12.4318 16.304 12.2362V0.913818C16.304 0.7182 16.4126 0.608653 16.6066 0.608653H22.0375V0.60083ZM22.0375 7.30661C23.6202 7.30661 24.5124 6.27374 24.5124 4.87312C24.5124 3.49597 23.6202 2.46311 22.0375 2.46311H18.2824V7.30661H22.0375Z" fill="#151516"/>
<path d="M30.6417 9.80273C31.4253 9.80273 32.1003 10.46 32.1003 11.2503C32.1003 12.0406 31.4253 12.7214 30.6417 12.7214C29.8581 12.7214 29.2064 12.0406 29.2064 11.2503C29.2064 10.46 29.8581 9.80273 30.6417 9.80273Z" fill="#151516"/>
<path d="M45.1964 12.5413C45.0412 12.5413 44.9171 12.4787 44.824 12.3457L40.937 7.39267L38.0509 3.38642L37.9422 3.40989L38.0741 6.96231V12.244C38.0741 12.4396 37.9655 12.5492 37.7483 12.5492H36.3828C36.2121 12.5492 36.119 12.4396 36.119 12.244V0.913807C36.119 0.71819 36.2044 0.608643 36.3983 0.608643H37.6785C37.8957 0.608643 38.0664 0.671241 38.175 0.827735L42.349 6.08594L44.9559 9.72443L45.0645 9.70096L44.9093 6.17201V0.913807C44.9093 0.71819 45.0179 0.608643 45.2119 0.608643H46.5774C46.7713 0.608643 46.8567 0.71819 46.8567 0.913807V12.244C46.8567 12.4396 46.7713 12.5492 46.5774 12.5492H45.1964V12.5413Z" fill="#151516"/>
<path d="M60.0537 0.60083C60.2089 0.60083 60.3563 0.73385 60.3563 0.905993V2.15795C60.3563 2.31444 60.2012 2.43964 60.0537 2.43964H53.1876V5.39738H59.4408C59.6348 5.39738 59.7434 5.50692 59.7434 5.70254V6.95449C59.7434 7.15011 59.6348 7.23618 59.4408 7.23618H53.1876V10.6791H60.271C60.4649 10.6791 60.5503 10.7651 60.5503 10.9451V12.2362C60.5503 12.4318 60.4649 12.5413 60.271 12.5413H51.4962C51.3023 12.5413 51.2169 12.4318 51.2169 12.2362V0.913818C51.2169 0.7182 51.3023 0.608653 51.4962 0.608653H60.0537V0.60083Z" fill="#151516"/>
<path d="M74.1275 0.60083C74.3215 0.60083 74.4301 0.710376 74.4301 0.905993V2.15795C74.4301 2.35356 74.3215 2.46311 74.1275 2.46311H70.1087V12.2362C70.1087 12.3927 70 12.5413 69.8061 12.5413H68.4406C68.2466 12.5413 68.138 12.4318 68.138 12.2362V2.46311H64.1192C63.9252 2.46311 63.8166 2.35356 63.8166 2.15795V0.905993C63.8166 0.710376 63.9252 0.60083 64.1192 0.60083H74.1275Z" fill="#151516"/>
<path d="M79.1938 0.60083C79.3877 0.60083 79.4963 0.663427 79.5429 0.819921L82.2816 10.2174H82.3902L85.0203 0.819921C85.0669 0.663427 85.1755 0.60083 85.3229 0.60083H86.7815C86.9367 0.60083 87.0453 0.663427 87.0841 0.819921L89.7762 10.2174H89.8849L92.6003 0.843396C92.6469 0.686901 92.7555 0.60083 92.9029 0.60083H94.5089C94.7028 0.60083 94.7727 0.686901 94.7028 0.882519L91.0098 12.2753C90.9478 12.4474 90.8159 12.5413 90.6374 12.5413H88.8375C88.6668 12.5413 88.5582 12.4553 88.4883 12.2596L86.0987 3.87156H85.9901L83.6238 12.2831C83.5773 12.4553 83.4686 12.5492 83.3212 12.5492H81.498C81.304 12.5492 81.1721 12.4631 81.1101 12.2831L77.3938 0.843396C77.3317 0.686901 77.3938 0.60083 77.5878 0.60083H79.1938Z" fill="#151516"/>
<path d="M103.765 0.428711C107.194 0.428711 109.871 3.01087 109.871 6.58676C109.871 10.1392 107.202 12.7213 103.765 12.7213C100.335 12.7213 97.6588 10.1392 97.6588 6.58676C97.6588 3.01087 100.328 0.428711 103.765 0.428711ZM99.6527 6.58676C99.6527 9.04372 101.329 10.859 103.757 10.859C106.193 10.859 107.861 9.04372 107.861 6.58676C107.861 4.11415 106.185 2.29099 103.757 2.29099C101.329 2.29099 99.6527 4.10633 99.6527 6.58676Z" fill="#151516"/>
<path d="M119.514 0.60083C122.098 0.60083 123.991 2.48658 123.991 4.87312C123.991 6.53978 123.099 7.94041 121.733 8.64463L123.712 12.197C123.82 12.3927 123.712 12.5492 123.471 12.5492H121.888C121.694 12.5492 121.539 12.3927 121.454 12.244L119.871 9.15324C119.809 9.17671 119.7 9.17671 119.569 9.17671H115.767V12.244C115.767 12.4396 115.682 12.5492 115.488 12.5492H114.122C113.882 12.5492 113.796 12.3927 113.796 12.244V0.913818C113.796 0.7182 113.905 0.608653 114.099 0.608653H119.514V0.60083ZM119.514 7.30661C121.097 7.30661 122.012 6.27374 122.012 4.87312C122.012 3.49597 121.097 2.46311 119.514 2.46311H115.759V7.30661H119.514Z" fill="#151516"/>
<path d="M129.786 0.60083C129.98 0.60083 130.089 0.710376 130.089 0.905993V6.1642L135.69 0.843396C135.846 0.686901 136.063 0.60083 136.319 0.60083H138.274C138.468 0.60083 138.553 0.796447 138.406 0.952941L133.192 5.74949L138.685 12.1657C138.84 12.3222 138.747 12.5413 138.514 12.5413H136.777C136.513 12.5413 136.296 12.4553 136.125 12.2596L131.757 7.04839L130.081 8.40989V12.244C130.081 12.4396 129.972 12.5492 129.779 12.5492H128.413C128.219 12.5492 128.11 12.4396 128.11 12.244V0.913818C128.11 0.7182 128.219 0.608653 128.413 0.608653H129.786V0.60083Z" fill="#151516"/>
</svg>
