<svg width="172" height="33" viewBox="0 0 172 33" fill="none" xmlns="http://www.w3.org/2000/svg">
<path fill-rule="evenodd" clip-rule="evenodd" d="M16.2228 22.1223L8.52203 28.0717L13.9283 32.237C14.3827 32.5871 15.0346 32.5871 15.489 32.237L28.741 22.0459L22.5219 17.2678L16.2228 22.1223ZM13.7553 22.5544L11.3452 20.6971L11.3418 20.7039L-0.000172728 12.0954C-0.000182265 12.0975 -0.00018608 12.0995 -0.00018608 12.1015L-0.000186178 13.2163L-0.000186752 19.7837L-0.000186849 20.8985C-0.000186883 21.2875 0.177624 21.6375 0.473972 21.8709L7.54166 27.3163L13.7553 22.5544ZM0.592977 11.0374L6.7997 15.806L13.9283 10.3122C13.9917 10.2633 14.059 10.2213 14.1291 10.1861L20.9475 4.96067L15.489 0.762989C15.0346 0.412914 14.3827 0.412914 13.9283 0.762989L0.592977 11.0374ZM21.9403 5.72411L15.7206 10.4906L23.5182 16.5L23.5132 16.5038L29.4115 21.0354C29.4155 20.9964 29.4175 20.9572 29.4175 20.9179L29.4175 19.784L29.4175 19.7837L29.4175 13.2163L29.4175 13.216L29.4175 12.082C29.4175 11.7125 29.2397 11.343 28.9433 11.1096L21.9403 5.72411Z" fill="#191C24"/>
<g opacity="0.9">
<path d="M37.6634 12.3661H35.7571L38.6233 16.9593L35.7212 21.5525H37.641L39.6864 18.2108H39.7582L41.8036 21.5525H43.7323L40.8571 16.9593L43.6875 12.3661H41.7901L39.7582 15.7303H39.6864L37.6634 12.3661Z" fill="#191C24"/>
<path d="M45.3728 21.5525H47.037V18.4485H48.7953C50.9169 18.4485 52.0563 17.1746 52.0563 15.4073C52.0563 13.6535 50.9304 12.3661 48.8177 12.3661H45.3728V21.5525ZM47.037 17.0804V13.7567H48.562C49.809 13.7567 50.3607 14.4295 50.3607 15.4073C50.3607 16.3852 49.809 17.0804 48.571 17.0804H47.037Z" fill="#191C24"/>
<path d="M54.3774 21.6512C54.9067 21.6512 55.3598 21.2116 55.3642 20.6644C55.3598 20.1261 54.9067 19.6865 54.3774 19.6865C53.8302 19.6865 53.3861 20.1261 53.3906 20.6644C53.3861 21.2116 53.8302 21.6512 54.3774 21.6512Z" fill="#191C24"/>
<path d="M65.0405 12.3661H63.3854V18.6279H63.3047L58.9806 12.3661H57.4914V21.5525H59.1555V15.2952H59.2318L63.5603 21.5525H65.0405V12.3661Z" fill="#191C24"/>
<path d="M67.2328 21.5525H73.2434V20.1575H68.8969V17.6501H72.898V16.2551H68.8969V13.7611H73.2075V12.3661H67.2328V21.5525Z" fill="#191C24"/>
<path d="M74.8805 13.7611H77.7198V21.5525H79.3705V13.7611H82.2098V12.3661H74.8805V13.7611Z" fill="#191C24"/>
<path d="M85.935 21.5525H87.5767L89.4202 15.1068H89.492L91.3311 21.5525H92.9728L95.5654 12.3661H93.7757L92.1205 19.1213H92.0398L90.268 12.3661H88.6397L86.8724 19.1169H86.7872L85.1321 12.3661H83.3423L85.935 21.5525Z" fill="#191C24"/>
<path d="M104.813 16.9593C104.813 13.9899 103.001 12.2405 100.592 12.2405C98.1792 12.2405 96.3716 13.9899 96.3716 16.9593C96.3716 19.9242 98.1792 21.6781 100.592 21.6781C103.001 21.6781 104.813 19.9287 104.813 16.9593ZM103.14 16.9593C103.14 19.0496 102.091 20.1844 100.592 20.1844C99.0988 20.1844 98.0447 19.0496 98.0447 16.9593C98.0447 14.8691 99.0988 13.7342 100.592 13.7342C102.091 13.7342 103.14 14.8691 103.14 16.9593Z" fill="#191C24"/>
<path d="M106.766 21.5525H108.43V18.1883H110.125L111.928 21.5525H113.785L111.798 17.9102C112.879 17.4752 113.449 16.5511 113.449 15.3042C113.449 13.5503 112.319 12.3661 110.21 12.3661H106.766V21.5525ZM108.43 16.8068V13.7567H109.955C111.197 13.7567 111.753 14.3263 111.753 15.3042C111.753 16.282 111.197 16.8068 109.964 16.8068H108.43Z" fill="#191C24"/>
<path d="M115.36 21.5525H117.024V18.8163L118.042 17.6142L120.783 21.5525H122.783L119.199 16.4883L122.752 12.3661H120.72L117.136 16.587H117.024V12.3661H115.36V21.5525Z" fill="#191C24"/>
<path d="M129.405 9.40569H128.508V24.5129H129.405V9.40569Z" fill="#191C24"/>
<path d="M138.935 21.5525C141.734 21.5525 143.394 19.8211 143.394 16.9503C143.394 14.0886 141.734 12.3661 138.998 12.3661H135.822V21.5525H138.935ZM137.486 20.1126V13.806H138.904C140.77 13.806 141.743 14.8466 141.743 16.9503C141.743 19.063 140.77 20.1126 138.855 20.1126H137.486Z" fill="#191C24"/>
<path d="M153.563 16.9593C153.563 13.9899 151.75 12.2405 149.342 12.2405C146.928 12.2405 145.121 13.9899 145.121 16.9593C145.121 19.9242 146.928 21.6781 149.342 21.6781C151.75 21.6781 153.563 19.9287 153.563 16.9593ZM151.889 16.9593C151.889 19.0496 150.84 20.1844 149.342 20.1844C147.848 20.1844 146.794 19.0496 146.794 16.9593C146.794 14.8691 147.848 13.7342 149.342 13.7342C150.84 13.7342 151.889 14.8691 151.889 16.9593Z" fill="#191C24"/>
<path d="M163.378 15.4656C163.095 13.4247 161.525 12.2405 159.489 12.2405C157.089 12.2405 155.281 13.9899 155.281 16.9593C155.281 19.9242 157.067 21.6781 159.489 21.6781C161.673 21.6781 163.122 20.2651 163.378 18.5113L161.7 18.5023C161.489 19.5789 160.61 20.1844 159.511 20.1844C158.022 20.1844 156.955 19.0675 156.955 16.9593C156.955 14.887 158.013 13.7342 159.516 13.7342C160.633 13.7342 161.507 14.3667 161.7 15.4656H163.378Z" fill="#191C24"/>
<path d="M170.273 14.8915H171.874C171.843 13.3395 170.52 12.2405 168.564 12.2405C166.635 12.2405 165.187 13.326 165.191 14.9498C165.191 16.2685 166.129 17.0266 167.64 17.4168L168.685 17.686C169.677 17.9372 170.331 18.2467 170.336 18.9599C170.331 19.7448 169.587 20.2696 168.501 20.2696C167.461 20.2696 166.653 19.8031 166.586 18.8388H164.949C165.016 20.6644 166.375 21.6915 168.515 21.6915C170.717 21.6915 171.996 20.5926 172 18.9733C171.996 17.381 170.681 16.6543 169.3 16.3269L168.439 16.1116C167.685 15.9321 166.869 15.6137 166.878 14.8466C166.882 14.1559 167.501 13.649 168.542 13.649C169.533 13.649 170.188 14.111 170.273 14.8915Z" fill="#191C24"/>
</g>
</svg>
