<svg width="205" height="38" viewBox="0 0 205 38" fill="none" xmlns="http://www.w3.org/2000/svg">
<path fill-rule="evenodd" clip-rule="evenodd" d="M19.0271 25.8603L10.1203 32.7415L16.5406 37.6882C17.0802 38.1039 17.8545 38.1039 18.3941 37.6882L34.1309 25.5863L26.7454 19.9121L19.0271 25.8603ZM16.3349 26.1897L13.4732 23.9843L13.4691 23.9923L0.000162336 13.7695C0.000150891 13.7719 0.000147076 13.7743 0.000147076 13.7767L0.000146961 15.0982L0.000143146 15.1005L0.000146279 22.8995L0.000142348 24.2234C0.000142308 24.6853 0.211297 25.101 0.563222 25.3782L8.95603 31.8445L16.3349 26.1897ZM0.704565 12.513L8.07525 18.1758L16.5406 11.6518C16.6152 11.5944 16.6943 11.5449 16.7766 11.5033L24.8758 5.29637L18.3941 0.311823C17.8545 -0.103902 17.0802 -0.103902 16.5406 0.311823L0.704565 12.513ZM26.0547 6.20298L18.6686 11.8634L27.9289 19L27.9227 19.0048L34.9275 24.3865C34.9322 24.34 34.9346 24.2932 34.9346 24.2465L34.9346 22.902L34.9346 22.8995L34.9346 13.7536C34.9346 13.3147 34.7234 12.8759 34.3715 12.5988L26.0547 6.20298Z" fill="white"/>
<g opacity="0.9">
<path d="M44.7274 14.0909H42.4635L45.8673 19.5455L42.4209 25H44.7007L47.1297 21.0316H47.2149L49.6439 25H51.9344L48.52 19.5455L51.8811 14.0909H49.6279L47.2149 18.0859H47.1297L44.7274 14.0909Z" fill="white"/>
<path d="M53.8825 25H55.8587V21.3139H57.9468C60.4663 21.3139 61.8193 19.8011 61.8193 17.7024C61.8193 15.6197 60.4823 14.0909 57.9734 14.0909H53.8825V25ZM55.8587 19.6893V15.7422H57.6698C59.1506 15.7422 59.8058 16.5412 59.8058 17.7024C59.8058 18.8636 59.1506 19.6893 57.6805 19.6893H55.8587Z" fill="white"/>
<path d="M64.5758 25.1172C65.2043 25.1172 65.7423 24.5952 65.7477 23.9453C65.7423 23.3061 65.2043 22.7841 64.5758 22.7841C63.9259 22.7841 63.3986 23.3061 63.4039 23.9453C63.3986 24.5952 63.9259 25.1172 64.5758 25.1172Z" fill="white"/>
<path d="M77.2386 14.0909H75.273V21.527H75.1771L70.0422 14.0909H68.2737V25H70.2499V17.5692H70.3405L75.4808 25H77.2386V14.0909Z" fill="white"/>
<path d="M79.8419 25H86.9797V23.3434H81.8181V20.3658H86.5695V18.7092H81.8181V15.7475H86.9371V14.0909H79.8419V25Z" fill="white"/>
<path d="M88.9238 15.7475H92.2956V25H94.2559V15.7475H97.6277V14.0909H88.9238V15.7475Z" fill="white"/>
<path d="M102.051 25H104.001L106.19 17.3455H106.275L108.459 25H110.409L113.488 14.0909H111.362L109.397 22.1129H109.301L107.197 14.0909H105.263L103.165 22.1076H103.063L101.098 14.0909H98.9725L102.051 25Z" fill="white"/>
<path d="M124.47 19.5455C124.47 16.0192 122.318 13.9418 119.458 13.9418C116.592 13.9418 114.445 16.0192 114.445 19.5455C114.445 23.0664 116.592 25.1491 119.458 25.1491C122.318 25.1491 124.47 23.0717 124.47 19.5455ZM122.483 19.5455C122.483 22.0277 121.237 23.3754 119.458 23.3754C117.684 23.3754 116.432 22.0277 116.432 19.5455C116.432 17.0632 117.684 15.7156 119.458 15.7156C121.237 15.7156 122.483 17.0632 122.483 19.5455Z" fill="white"/>
<path d="M126.788 25H128.765V21.005H130.778L132.919 25H135.125L132.765 20.6747C134.049 20.158 134.725 19.0607 134.725 17.5799C134.725 15.4972 133.383 14.0909 130.879 14.0909H126.788V25ZM128.765 19.3643V15.7422H130.576C132.051 15.7422 132.712 16.4187 132.712 17.5799C132.712 18.7411 132.051 19.3643 130.586 19.3643H128.765Z" fill="white"/>
<path d="M136.994 25H138.97V21.7507L140.18 20.3232L143.434 25H145.81L141.554 18.9862L145.773 14.0909H143.36L139.104 19.1033H138.97V14.0909H136.994V25Z" fill="white"/>
<path d="M153.673 10.5753H152.608V28.5156H153.673V10.5753Z" fill="white"/>
<path d="M164.991 25C168.315 25 170.286 22.9439 170.286 19.5348C170.286 16.1364 168.315 14.0909 165.066 14.0909H161.294V25H164.991ZM163.27 23.2901V15.8008H164.954C167.17 15.8008 168.326 17.0366 168.326 19.5348C168.326 22.0437 167.17 23.2901 164.895 23.2901H163.27Z" fill="white"/>
<path d="M182.361 19.5455C182.361 16.0192 180.209 13.9418 177.349 13.9418C174.483 13.9418 172.336 16.0192 172.336 19.5455C172.336 23.0664 174.483 25.1491 177.349 25.1491C180.209 25.1491 182.361 23.0717 182.361 19.5455ZM180.374 19.5455C180.374 22.0277 179.128 23.3754 177.349 23.3754C175.575 23.3754 174.323 22.0277 174.323 19.5455C174.323 17.0632 175.575 15.7156 177.349 15.7156C179.128 15.7156 180.374 17.0632 180.374 19.5455Z" fill="white"/>
<path d="M194.017 17.7717C193.682 15.348 191.817 13.9418 189.399 13.9418C186.549 13.9418 184.403 16.0192 184.403 19.5455C184.403 23.0664 186.523 25.1491 189.399 25.1491C191.993 25.1491 193.714 23.4712 194.017 21.3885L192.025 21.3778C191.775 22.6563 190.731 23.3754 189.426 23.3754C187.657 23.3754 186.389 22.049 186.389 19.5455C186.389 17.0845 187.647 15.7156 189.431 15.7156C190.757 15.7156 191.796 16.4666 192.025 17.7717H194.017Z" fill="white"/>
<path d="M202.206 17.0898H204.107C204.07 15.2468 202.499 13.9418 200.176 13.9418C197.886 13.9418 196.165 15.2308 196.171 17.1591C196.171 18.7251 197.284 19.6254 199.079 20.0888L200.32 20.4084C201.497 20.7067 202.275 21.0742 202.28 21.9212C202.275 22.8533 201.391 23.4766 200.102 23.4766C198.866 23.4766 197.907 22.9226 197.827 21.7773H195.883C195.963 23.9453 197.577 25.1651 200.118 25.1651C202.733 25.1651 204.251 23.8601 204.256 21.9371C204.251 20.0462 202.69 19.1832 201.05 18.7944L200.027 18.5387C199.132 18.3256 198.163 17.9474 198.173 17.0366C198.179 16.2163 198.914 15.6143 200.15 15.6143C201.327 15.6143 202.104 16.163 202.206 17.0898Z" fill="white"/>
</g>
</svg>
