<svg width="152" height="38" viewBox="0 0 152 38" fill="none" xmlns="http://www.w3.org/2000/svg">
<path fill-rule="evenodd" clip-rule="evenodd" d="M19.0271 25.8603L10.1203 32.7415L16.5406 37.6882C17.0802 38.1039 17.8545 38.1039 18.3941 37.6882L34.1309 25.5863L26.7454 19.9121L19.0271 25.8603ZM16.3349 26.1897L13.4732 23.9843L13.4691 23.9923L0.000162336 13.7695C0.000150891 13.7719 0.000147076 13.7743 0.000147076 13.7767L0.000146961 15.0982L0.000143146 15.1005L0.000146279 22.8995L0.000142348 24.2234C0.000142308 24.6853 0.211297 25.101 0.563222 25.3782L8.95603 31.8445L16.3349 26.1897ZM0.704565 12.513L8.07525 18.1758L16.5406 11.6518C16.6152 11.5944 16.6943 11.5449 16.7766 11.5033L24.8758 5.29637L18.3941 0.311823C17.8545 -0.103902 17.0802 -0.103902 16.5406 0.311823L0.704565 12.513ZM26.0547 6.20298L18.6686 11.8634L27.9289 19L27.9227 19.0048L34.9275 24.3865C34.9322 24.34 34.9346 24.2932 34.9346 24.2465L34.9346 22.902L34.9346 22.8995L34.9346 13.7536C34.9346 13.3147 34.7234 12.8759 34.3715 12.5988L26.0547 6.20298Z" fill="#191C24"/>
<path opacity="0.9" d="M47.6925 14.1179H45.4287L48.8324 19.5725L45.386 25.027H47.6659L50.0948 21.0586H50.1801L52.6091 25.027H54.8995L51.4851 19.5725L54.8463 14.1179H52.5931L50.1801 18.113H50.0948L47.6925 14.1179ZM56.8477 25.027H58.8239V21.3409H60.9119C63.4315 21.3409 64.7845 19.8282 64.7845 17.7294C64.7845 15.6467 63.4475 14.1179 60.9386 14.1179H56.8477V25.027ZM58.8239 19.7163V15.7692H60.635C62.1158 15.7692 62.771 16.5682 62.771 17.7294C62.771 18.8907 62.1158 19.7163 60.6456 19.7163H58.8239ZM67.5409 25.1442C68.1695 25.1442 68.7075 24.6222 68.7128 23.9723C68.7075 23.3331 68.1695 22.8111 67.5409 22.8111C66.8911 22.8111 66.3637 23.3331 66.369 23.9723C66.3637 24.6222 66.8911 25.1442 67.5409 25.1442ZM80.2037 14.1179H78.2382V21.554H78.1423L73.0073 14.1179H71.2389V25.027H73.2151V17.5963H73.3056L78.4459 25.027H80.2037V14.1179ZM82.807 25.027H89.9448V23.3704H84.7833V20.3928H89.5347V18.7362H84.7833V15.7745H89.9022V14.1179H82.807V25.027ZM91.889 15.7745H95.2608V25.027H97.221V15.7745H100.593V14.1179H91.889V15.7745ZM105.017 25.027H106.966L109.155 17.3725H109.241L111.425 25.027H113.374L116.453 14.1179H114.328L112.362 22.1399H112.266L110.162 14.1179H108.229L106.13 22.1346H106.029L104.063 14.1179H101.938L105.017 25.027ZM127.435 19.5725C127.435 16.0462 125.283 13.9688 122.423 13.9688C119.557 13.9688 117.41 16.0462 117.41 19.5725C117.41 23.0934 119.557 25.1762 122.423 25.1762C125.283 25.1762 127.435 23.0988 127.435 19.5725ZM125.448 19.5725C125.448 22.0547 124.202 23.4024 122.423 23.4024C120.649 23.4024 119.397 22.0547 119.397 19.5725C119.397 17.0902 120.649 15.7426 122.423 15.7426C124.202 15.7426 125.448 17.0902 125.448 19.5725ZM129.754 25.027H131.73V21.032H133.743L135.885 25.027H138.09L135.73 20.7017C137.014 20.185 137.69 19.0877 137.69 17.6069C137.69 15.5242 136.348 14.1179 133.844 14.1179H129.754V25.027ZM131.73 19.3914V15.7692H133.541C135.016 15.7692 135.677 16.4457 135.677 17.6069C135.677 18.7681 135.016 19.3914 133.551 19.3914H131.73ZM139.959 25.027H141.936V21.7777L143.145 20.3502L146.399 25.027H148.775L144.519 19.0132L148.738 14.1179H146.325L142.069 19.1304H141.936V14.1179H139.959V25.027Z" fill="#191C24"/>
</svg>
