<svg width="182" height="36" viewBox="0 0 182 36" fill="none" xmlns="http://www.w3.org/2000/svg">
<path d="M41.2993 12.1951C41.535 12.1951 41.5958 12.256 41.6642 12.3472L44.7282 16.4376H44.8347L47.7922 12.37C47.8759 12.2636 48.0051 12.2027 48.1724 12.2027H50.0275C50.2176 12.2027 50.286 12.37 50.1947 12.4765L46.0435 17.6921L50.6661 23.5007C50.7726 23.6528 50.7118 23.7973 50.5141 23.7973H48.6437C48.4765 23.7973 48.3244 23.7364 48.218 23.5844L44.7662 18.9466H44.6598L41.3677 23.5692C41.2385 23.7212 41.094 23.8049 40.9191 23.8049H39.064C38.912 23.8049 38.8283 23.6756 38.9348 23.5312L43.4889 17.7377L39.3834 12.5221C39.2997 12.37 39.3377 12.2027 39.5354 12.2027H41.2993V12.1951Z" fill="white"/>
<path d="M59.6529 12.1951C62.1847 12.1951 64.017 14.0275 64.017 16.3464C64.017 18.7337 62.1847 20.5204 59.6529 20.5204H55.9731V23.5007C55.9731 23.6908 55.8894 23.7973 55.7146 23.7973H54.3308C54.1407 23.7973 54.0343 23.6908 54.0343 23.5007V12.4993C54.0343 12.3092 54.1407 12.2027 54.3308 12.2027H59.6529V12.1951ZM59.6529 18.7109C61.2039 18.7109 62.0782 17.7073 62.0782 16.3464C62.0782 15.0082 61.2039 14.0046 59.6529 14.0046H55.9731V18.7109H59.6529Z" fill="white"/>
<path d="M68.0845 21.1362C68.8524 21.1362 69.5139 21.7749 69.5139 22.5428C69.5139 23.3107 68.8524 23.9721 68.0845 23.9721C67.3166 23.9721 66.678 23.3107 66.678 22.5428C66.678 21.7749 67.3166 21.1362 68.0845 21.1362Z" fill="white"/>
<path d="M82.3476 23.7973C82.1955 23.7973 82.0739 23.7364 81.9827 23.6072L78.1736 18.7945L75.3453 14.9018L75.2388 14.9246L75.3681 18.3763V23.5083C75.3681 23.6984 75.2617 23.8049 75.0488 23.8049H73.7106C73.5434 23.8049 73.4521 23.6984 73.4521 23.5083V12.4993C73.4521 12.3092 73.5358 12.2027 73.7259 12.2027H74.9803C75.1932 12.2027 75.3605 12.2636 75.4669 12.4156L79.5573 17.5248L82.1119 21.0602L82.2184 21.0374L82.0663 17.6084V12.4993C82.0663 12.3092 82.1727 12.2027 82.3628 12.2027H83.7009C83.891 12.2027 83.9746 12.3092 83.9746 12.4993V23.5083C83.9746 23.6984 83.891 23.8049 83.7009 23.8049H82.3476V23.7973Z" fill="white"/>
<path d="M96.9073 12.1951C97.0594 12.1951 97.2038 12.3244 97.2038 12.4917V13.7081C97.2038 13.8602 97.0518 13.9818 96.9073 13.9818H90.1787V16.8558H96.3067C96.4968 16.8558 96.6032 16.9622 96.6032 17.1523V18.3687C96.6032 18.5588 96.4968 18.6425 96.3067 18.6425H90.1787V21.9878H97.1202C97.3103 21.9878 97.3939 22.0714 97.3939 22.2463V23.5007C97.3939 23.6908 97.3103 23.7973 97.1202 23.7973H88.5213C88.3312 23.7973 88.2476 23.6908 88.2476 23.5007V12.4993C88.2476 12.3092 88.3312 12.2027 88.5213 12.2027H96.9073V12.1951Z" fill="white"/>
<path d="M110.699 12.1951C110.889 12.1951 110.996 12.3016 110.996 12.4917V13.7081C110.996 13.8982 110.889 14.0046 110.699 14.0046H106.761V23.5007C106.761 23.6528 106.654 23.7973 106.464 23.7973H105.126C104.936 23.7973 104.83 23.6908 104.83 23.5007V14.0046H100.891C100.701 14.0046 100.595 13.8982 100.595 13.7081V12.4917C100.595 12.3016 100.701 12.1951 100.891 12.1951H110.699Z" fill="white"/>
<path d="M115.664 12.1951C115.854 12.1951 115.96 12.256 116.006 12.408L118.69 21.5392H118.796L121.374 12.408C121.419 12.256 121.526 12.1951 121.67 12.1951H123.099C123.252 12.1951 123.358 12.256 123.396 12.408L126.034 21.5392H126.141L128.802 12.4308C128.847 12.2788 128.954 12.1951 129.098 12.1951H130.672C130.862 12.1951 130.931 12.2788 130.862 12.4689L127.243 23.5388C127.182 23.706 127.053 23.7973 126.878 23.7973H125.114C124.947 23.7973 124.841 23.7136 124.772 23.5236L122.43 15.3732H122.324L120.005 23.5464C119.959 23.7136 119.853 23.8049 119.709 23.8049H117.922C117.732 23.8049 117.603 23.7212 117.542 23.5464L113.9 12.4308C113.839 12.2788 113.9 12.1951 114.09 12.1951H115.664Z" fill="white"/>
<path d="M139.742 12.0279C143.103 12.0279 145.726 14.5369 145.726 18.0114C145.726 21.4632 143.11 23.9721 139.742 23.9721C136.382 23.9721 133.759 21.4632 133.759 18.0114C133.759 14.5369 136.374 12.0279 139.742 12.0279ZM135.713 18.0114C135.713 20.3987 137.355 22.1626 139.735 22.1626C142.122 22.1626 143.757 20.3987 143.757 18.0114C143.757 15.6089 142.114 13.8374 139.735 13.8374C137.355 13.8374 135.713 15.6013 135.713 18.0114Z" fill="white"/>
<path d="M155.176 12.1951C157.708 12.1951 159.563 14.0275 159.563 16.3464C159.563 17.9658 158.689 19.3267 157.351 20.011L159.29 23.4627C159.396 23.6528 159.29 23.8049 159.054 23.8049H157.503C157.313 23.8049 157.161 23.6528 157.077 23.5083L155.526 20.5052C155.465 20.528 155.359 20.528 155.23 20.528H151.504V23.5083C151.504 23.6984 151.421 23.8049 151.23 23.8049H149.892C149.657 23.8049 149.573 23.6528 149.573 23.5083V12.4993C149.573 12.3092 149.679 12.2027 149.87 12.2027H155.176V12.1951ZM155.176 18.7109C156.727 18.7109 157.625 17.7073 157.625 16.3464C157.625 15.0082 156.727 14.0046 155.176 14.0046H151.497V18.7109H155.176Z" fill="white"/>
<path d="M165.243 12.1951C165.433 12.1951 165.539 12.3016 165.539 12.4917V17.6008L171.029 12.4308C171.181 12.2788 171.393 12.1951 171.644 12.1951H173.56C173.75 12.1951 173.834 12.3852 173.69 12.5373L168.58 17.1979L173.963 23.4323C174.115 23.5844 174.024 23.7973 173.796 23.7973H172.093C171.834 23.7973 171.622 23.7136 171.454 23.5236L167.174 18.46L165.532 19.7829V23.5083C165.532 23.6984 165.425 23.8049 165.235 23.8049H163.897C163.707 23.8049 163.6 23.6984 163.6 23.5083V12.4993C163.6 12.3092 163.707 12.2027 163.897 12.2027H165.243V12.1951Z" fill="white"/>
<path d="M22.193 29.0737L19.6764 26.5571C18.9617 25.8424 17.8061 25.8424 17.099 26.5571L14.5824 29.0737C13.8449 29.8112 12.6437 29.8112 11.9062 29.0737L10.6897 27.8572L14.5444 24.0025C16.6656 21.8813 20.1022 21.8813 22.2234 24.0025L26.0781 27.8572L24.8616 29.0737C24.1317 29.8112 22.9381 29.8112 22.193 29.0737Z" fill="#F75471"/>
<path d="M8.53058 25.6904L7.3141 24.4739C6.57661 23.7364 6.57661 22.5352 7.3141 21.7977L9.83068 19.2811C10.5454 18.5664 10.5454 17.4108 9.83068 16.7037L7.3141 14.1871C6.57661 13.4496 6.57661 12.2484 7.3141 11.5109L8.53058 10.2944L12.3853 14.1491C14.5065 16.2703 14.5065 19.7069 12.3853 21.8281L8.53058 25.6904Z" fill="#F75471"/>
<path d="M18.422 13.5485C17.0306 13.5485 15.6393 13.0239 14.5825 11.9595L10.7278 8.10475L11.9443 6.88828C12.6817 6.1508 13.883 6.1508 14.6205 6.88828L17.1371 9.40486C17.8442 10.1119 19.0074 10.1119 19.7145 9.40486L22.2311 6.88828C22.9685 6.1508 24.1698 6.1508 24.9073 6.88828L26.1238 8.10475L22.2691 11.9595C21.2047 13.0087 19.8133 13.5485 18.422 13.5485Z" fill="#F75471"/>
<path d="M28.283 25.66L24.4283 21.8053C22.3071 19.6841 22.3071 16.2475 24.4283 14.1263L28.283 10.2716L29.4995 11.4881C30.237 12.2256 30.237 13.4268 29.4995 14.1643L26.9829 16.6809C26.2682 17.3956 26.2682 18.5512 26.9829 19.2583L29.4995 21.7749C30.237 22.5124 30.237 23.7136 29.4995 24.4511L28.283 25.66Z" fill="#F75471"/>
</svg>
