<?xml version="1.0" standalone="no"?>
<!DOCTYPE svg PUBLIC "-//W3C//DTD SVG 20010904//EN"
 "http://www.w3.org/TR/2001/REC-SVG-20010904/DTD/svg10.dtd">
<svg version="1.0" xmlns="http://www.w3.org/2000/svg"
 width="25.000000pt" height="25.000000pt" viewBox="0 0 1800.000000 1800.000000"
 preserveAspectRatio="xMidYMid meet">

<g transform="translate(0.000000,1800.000000) scale(0.100000,-0.100000)"
fill="#04795b" stroke="none">
<path d="M8620 17989 c-1805 -73 -3567 -701 -5012 -1786 -565 -425 -1085 -919
-1529 -1453 -724 -871 -1277 -1873 -1632 -2955 -526 -1605 -586 -3355 -170
-5000 354 -1405 1032 -2681 2009 -3785 252 -286 653 -672 964 -931 1034 -859
2251 -1478 3553 -1805 1439 -361 2968 -361 4399 2 1411 357 2683 1032 3788
2010 286 252 672 653 931 964 859 1034 1478 2251 1805 3553 361 1439 361 2968
-2 4399 -357 1411 -1032 2683 -2010 3788 -252 286 -653 672 -964 931 -1039
864 -2254 1479 -3569 1809 -828 207 -1690 294 -2561 259z m775 -3059 c1281
-90 2458 -567 3435 -1390 171 -144 531 -499 662 -652 98 -115 208 -256 208
-267 0 -3 -1059 -1065 -2354 -2360 l-2353 -2353 -2352 2347 c-1293 1291 -2351
2352 -2351 2358 0 12 98 133 250 307 147 168 454 471 620 611 973 823 2153
1305 3420 1398 165 12 651 13 815 1z m-4565 -3874 c-323 -413 -492 -971 -452
-1488 62 -788 519 -1464 1217 -1804 744 -361 1629 -273 2279 228 l78 61 524
-524 524 -524 524 524 523 523 64 -50 c494 -386 1151 -541 1768 -416 663 133
1232 573 1527 1179 361 744 273 1629 -228 2279 l-61 78 479 479 c263 264 481
479 484 479 11 0 159 -270 260 -475 313 -636 498 -1297 572 -2040 21 -207 17
-928 -5 -1135 -84 -775 -270 -1416 -601 -2080 -774 -1547 -2201 -2693 -3867
-3104 -507 -125 -926 -176 -1452 -176 -366 0 -637 22 -983 80 -929 156 -1805
531 -2564 1099 -307 229 -732 627 -963 902 -848 1006 -1321 2173 -1408 3472
-15 226 -6 756 16 962 90 845 330 1607 733 2323 l97 172 481 -481 482 -482
-48 -61z m1588 -1469 l1083 -1083 -73 -51 c-225 -155 -459 -237 -751 -265
-327 -30 -680 58 -962 242 -355 232 -594 585 -677 1003 -30 149 -31 423 -4
567 24 125 84 306 134 406 32 64 157 264 165 264 1 0 489 -487 1085 -1083z
m6320 989 c161 -242 238 -489 249 -791 6 -183 -4 -283 -47 -450 -69 -266 -207
-504 -410 -705 -228 -225 -504 -367 -821 -421 -107 -18 -150 -21 -309 -16
-195 6 -281 20 -445 73 -110 36 -284 123 -380 191 l-80 57 1085 1078 c596 593
1087 1078 1090 1078 4 0 34 -42 68 -94z"/>
<path d="M8530 14144 c-1015 -92 -1950 -467 -2740 -1099 -162 -129 -430 -372
-430 -389 0 -6 819 -830 1820 -1831 l1820 -1820 1820 1820 c1001 1001 1820
1825 1820 1831 0 12 -238 233 -360 335 -810 673 -1806 1074 -2879 1158 -182
15 -692 12 -871 -5z"/>
</g>
</svg>
