<?xml version="1.0" standalone="no"?>
<!DOCTYPE svg PUBLIC "-//W3C//DTD SVG 20010904//EN"
 "http://www.w3.org/TR/2001/REC-SVG-20010904/DTD/svg10.dtd">
<svg version="1.0" xmlns="http://www.w3.org/2000/svg"
 width="25.000000pt" height="25.000000pt" viewBox="0 0 235.000000 199.000000"
 preserveAspectRatio="xMidYMid meet">

<g transform="translate(0.000000,199.000000) scale(0.100000,-0.100000)"
fill="#000000" stroke="none">
<path d="M806 1924 c-158 -34 -294 -105 -408 -212 -123 -116 -205 -250 -250
-407 -22 -78 -22 -91 -26 -678 l-3 -597 663 0 c413 0 687 4 727 11 147 23 307
97 425 194 74 62 162 178 211 278 82 171 79 136 82 820 l4 607 -678 -1 c-557
0 -690 -3 -747 -15z m1194 -314 l0 -110 -497 0 c-605 0 -617 -2 -750 -101 -59
-44 -122 -130 -149 -204 -15 -42 -19 -93 -24 -310 l-5 -260 -110 0 -110 0 1
265 c1 261 1 266 29 350 40 123 78 185 174 280 97 97 183 147 311 180 69 17
114 19 603 19 l527 1 0 -110z m0 -518 c0 -293 -10 -357 -75 -480 -108 -207
-299 -335 -538 -362 -56 -7 -278 -10 -562 -8 l-470 3 -3 118 -3 117 520 0
c480 0 524 1 580 19 83 26 137 60 198 123 92 99 123 189 123 365 l0 113 -384
0 -385 0 -15 -22 c-9 -12 -16 -29 -16 -37 0 -8 86 -101 191 -207 110 -110 188
-197 185 -203 -5 -8 -103 -11 -317 -11 l-311 0 4 248 c3 245 3 248 30 302 30
62 48 84 99 123 74 56 71 56 632 56 l517 1 0 -258z"/>
</g>
</svg>
